<svg width="123" height="41" viewBox="0 0 123 41" fill="none" xmlns="http://www.w3.org/2000/svg">
<mask id="path-1-inside-1_109_3485" fill="white">
<path d="M0 8.27051C0 3.85223 3.58172 0.270508 8 0.270508H115C119.418 0.270508 123 3.85223 123 8.27051V32.2705C123 36.6888 119.418 40.2705 115 40.2705H8C3.58172 40.2705 0 36.6888 0 32.2705V8.27051Z"/>
</mask>
<path d="M0 8.27051C0 3.85223 3.58172 0.270508 8 0.270508H115C119.418 0.270508 123 3.85223 123 8.27051V32.2705C123 36.6888 119.418 40.2705 115 40.2705H8C3.58172 40.2705 0 36.6888 0 32.2705V8.27051Z" fill="#006FFF"/>
<path d="M8 1.27051H115V-0.729492H8V1.27051ZM122 8.27051V32.2705H124V8.27051H122ZM115 39.2705H8V41.2705H115V39.2705ZM1 32.2705V8.27051H-1V32.2705H1ZM8 39.2705C4.13401 39.2705 1 36.1365 1 32.2705H-1C-1 37.2411 3.02944 41.2705 8 41.2705V39.2705ZM122 32.2705C122 36.1365 118.866 39.2705 115 39.2705V41.2705C119.971 41.2705 124 37.2411 124 32.2705H122ZM115 1.27051C118.866 1.27051 122 4.40451 122 8.27051H124C124 3.29995 119.971 -0.729492 115 -0.729492V1.27051ZM8 -0.729492C3.02944 -0.729492 -1 3.29994 -1 8.27051H1C1 4.40451 4.13401 1.27051 8 1.27051V-0.729492Z" fill="#006FFF" mask="url(#path-1-inside-1_109_3485)"/>
<g clip-path="url(#clip0_109_3485)">
<path d="M20.0002 13.604L22.0602 17.7773L26.6668 18.4507L23.3335 21.6973L24.1202 26.284L20.0002 24.1173L15.8802 26.284L16.6668 21.6973L13.3335 18.4507L17.9402 17.7773L20.0002 13.604Z" stroke="#F5F5F5" stroke-width="1.6" stroke-linecap="round" stroke-linejoin="round"/>
</g>
<path d="M46.7727 18.2705H45.3636C45.2803 17.8652 45.1345 17.5091 44.9261 17.2023C44.7216 16.8955 44.4716 16.6379 44.1761 16.4296C43.8845 16.2175 43.5606 16.0584 43.2045 15.9523C42.8485 15.8463 42.4773 15.7932 42.0909 15.7932C41.3864 15.7932 40.7481 15.9713 40.1761 16.3273C39.608 16.6834 39.1553 17.208 38.8182 17.9012C38.4848 18.5944 38.3182 19.4448 38.3182 20.4523C38.3182 21.4599 38.4848 22.3103 38.8182 23.0035C39.1553 23.6966 39.608 24.2213 40.1761 24.5773C40.7481 24.9334 41.3864 25.1114 42.0909 25.1114C42.4773 25.1114 42.8485 25.0584 43.2045 24.9523C43.5606 24.8463 43.8845 24.6891 44.1761 24.4807C44.4716 24.2686 44.7216 24.0091 44.9261 23.7023C45.1345 23.3917 45.2803 23.0357 45.3636 22.6341H46.7727C46.6667 23.2288 46.4735 23.761 46.1932 24.2307C45.9129 24.7004 45.5644 25.1001 45.1477 25.4296C44.7311 25.7554 44.2633 26.0035 43.7443 26.1739C43.2292 26.3444 42.678 26.4296 42.0909 26.4296C41.0985 26.4296 40.2159 26.1872 39.4432 25.7023C38.6705 25.2175 38.0625 24.5281 37.6193 23.6341C37.1761 22.7402 36.9545 21.6796 36.9545 20.4523C36.9545 19.2251 37.1761 18.1644 37.6193 17.2705C38.0625 16.3766 38.6705 15.6872 39.4432 15.2023C40.2159 14.7175 41.0985 14.4751 42.0909 14.4751C42.678 14.4751 43.2292 14.5603 43.7443 14.7307C44.2633 14.9012 44.7311 15.1512 45.1477 15.4807C45.5644 15.8065 45.9129 16.2042 46.1932 16.6739C46.4735 17.1398 46.6667 17.672 46.7727 18.2705ZM48.8679 26.2705V17.5432H50.1634V18.8614H50.2543C50.4134 18.4296 50.7012 18.0792 51.1179 17.8103C51.5346 17.5413 52.0043 17.4069 52.527 17.4069C52.6255 17.4069 52.7486 17.4088 52.8963 17.4126C53.044 17.4163 53.1558 17.422 53.2315 17.4296V18.7932C53.1861 18.7819 53.0819 18.7648 52.919 18.7421C52.7599 18.7156 52.5914 18.7023 52.4134 18.7023C51.9891 18.7023 51.6103 18.7913 51.277 18.9694C50.9474 19.1436 50.6861 19.386 50.4929 19.6966C50.3035 20.0035 50.2088 20.3538 50.2088 20.7478V26.2705H48.8679ZM58.2145 26.4523C57.3736 26.4523 56.6482 26.2667 56.0384 25.8955C55.4323 25.5205 54.9645 24.9978 54.6349 24.3273C54.3092 23.6531 54.1463 22.869 54.1463 21.9751C54.1463 21.0811 54.3092 20.2932 54.6349 19.6114C54.9645 18.9258 55.4228 18.3917 56.0099 18.0091C56.6009 17.6228 57.2902 17.4296 58.0781 17.4296C58.5327 17.4296 58.9815 17.5054 59.4247 17.6569C59.8679 17.8084 60.2713 18.0546 60.6349 18.3955C60.9986 18.7326 61.2884 19.1796 61.5043 19.7364C61.7202 20.2932 61.8281 20.9788 61.8281 21.7932V22.3614H55.1009V21.2023H60.4645C60.4645 20.7099 60.366 20.2705 60.169 19.8841C59.9759 19.4978 59.6993 19.1929 59.3395 18.9694C58.9834 18.7459 58.563 18.6341 58.0781 18.6341C57.544 18.6341 57.0819 18.7667 56.6918 19.0319C56.3054 19.2932 56.008 19.6341 55.7997 20.0546C55.5914 20.4751 55.4872 20.9258 55.4872 21.4069V22.1796C55.4872 22.8387 55.6009 23.3974 55.8281 23.8557C56.0592 24.3103 56.3793 24.6569 56.7884 24.8955C57.1974 25.1304 57.6728 25.2478 58.2145 25.2478C58.5668 25.2478 58.8849 25.1985 59.169 25.1001C59.4569 24.9978 59.705 24.8463 59.9134 24.6455C60.1217 24.441 60.2827 24.1872 60.3963 23.8841L61.6918 24.2478C61.5554 24.6872 61.3262 25.0735 61.0043 25.4069C60.6823 25.7364 60.2846 25.994 59.8111 26.1796C59.3376 26.3614 58.8054 26.4523 58.2145 26.4523ZM66.4361 26.4751C65.883 26.4751 65.3812 26.3709 64.9304 26.1626C64.4796 25.9504 64.1217 25.6455 63.8565 25.2478C63.5914 24.8463 63.4588 24.3614 63.4588 23.7932C63.4588 23.2932 63.5573 22.8879 63.7543 22.5773C63.9512 22.2629 64.2145 22.0167 64.544 21.8387C64.8736 21.6607 65.2372 21.5281 65.6349 21.441C66.0365 21.3501 66.4399 21.2781 66.8452 21.2251C67.3755 21.1569 67.8054 21.1057 68.1349 21.0716C68.4683 21.0338 68.7107 20.9713 68.8622 20.8841C69.0175 20.797 69.0952 20.6455 69.0952 20.4296V20.3841C69.0952 19.8235 68.9418 19.3879 68.6349 19.0773C68.3319 18.7667 67.8717 18.6114 67.2543 18.6114C66.6141 18.6114 66.1122 18.7516 65.7486 19.0319C65.3849 19.3122 65.1293 19.6114 64.9815 19.9296L63.7088 19.4751C63.9361 18.9447 64.2391 18.5319 64.6179 18.2364C65.0005 17.9372 65.4171 17.7288 65.8679 17.6114C66.3224 17.4902 66.7694 17.4296 67.2088 17.4296C67.4891 17.4296 67.8111 17.4637 68.1747 17.5319C68.5421 17.5963 68.8963 17.7307 69.2372 17.9353C69.5819 18.1398 69.8679 18.4485 70.0952 18.8614C70.3224 19.2743 70.4361 19.8273 70.4361 20.5205V26.2705H69.0952V25.0887H69.027C68.9361 25.2781 68.7846 25.4807 68.5724 25.6966C68.3603 25.9126 68.0781 26.0963 67.7259 26.2478C67.3736 26.3993 66.9437 26.4751 66.4361 26.4751ZM66.6406 25.2705C67.1709 25.2705 67.6179 25.1663 67.9815 24.958C68.349 24.7497 68.6255 24.4807 68.8111 24.1512C69.0005 23.8216 69.0952 23.4751 69.0952 23.1114V21.8841C69.0384 21.9523 68.9134 22.0148 68.7202 22.0716C68.5308 22.1247 68.3111 22.172 68.0611 22.2137C67.8149 22.2516 67.5743 22.2857 67.3395 22.316C67.1084 22.3425 66.9209 22.3652 66.777 22.3841C66.4285 22.4296 66.1027 22.5035 65.7997 22.6057C65.5005 22.7042 65.258 22.8538 65.0724 23.0546C64.8906 23.2516 64.7997 23.5205 64.7997 23.8614C64.7997 24.3273 64.9721 24.6796 65.3168 24.9182C65.6652 25.1531 66.1065 25.2705 66.6406 25.2705ZM76.679 17.5432V18.6796H72.1562V17.5432H76.679ZM73.4744 15.4523H74.8153V23.7705C74.8153 24.1493 74.8703 24.4334 74.9801 24.6228C75.0938 24.8084 75.2377 24.9334 75.4119 24.9978C75.59 25.0584 75.7775 25.0887 75.9744 25.0887C76.1222 25.0887 76.2434 25.0811 76.3381 25.066C76.4328 25.047 76.5085 25.0319 76.5653 25.0205L76.8381 26.2251C76.7472 26.2591 76.6203 26.2932 76.4574 26.3273C76.2945 26.3652 76.0881 26.3841 75.8381 26.3841C75.4593 26.3841 75.0881 26.3027 74.7244 26.1398C74.3646 25.9769 74.0653 25.7288 73.8267 25.3955C73.5919 25.0622 73.4744 24.6417 73.4744 24.1341V15.4523ZM82.2614 26.4523C81.4205 26.4523 80.6951 26.2667 80.0852 25.8955C79.4792 25.5205 79.0114 24.9978 78.6818 24.3273C78.3561 23.6531 78.1932 22.869 78.1932 21.9751C78.1932 21.0811 78.3561 20.2932 78.6818 19.6114C79.0114 18.9258 79.4697 18.3917 80.0568 18.0091C80.6477 17.6228 81.3371 17.4296 82.125 17.4296C82.5795 17.4296 83.0284 17.5054 83.4716 17.6569C83.9148 17.8084 84.3182 18.0546 84.6818 18.3955C85.0455 18.7326 85.3352 19.1796 85.5511 19.7364C85.767 20.2932 85.875 20.9788 85.875 21.7932V22.3614H79.1477V21.2023H84.5114C84.5114 20.7099 84.4129 20.2705 84.2159 19.8841C84.0227 19.4978 83.7462 19.1929 83.3864 18.9694C83.0303 18.7459 82.6098 18.6341 82.125 18.6341C81.5909 18.6341 81.1288 18.7667 80.7386 19.0319C80.3523 19.2932 80.0549 19.6341 79.8466 20.0546C79.6383 20.4751 79.5341 20.9258 79.5341 21.4069V22.1796C79.5341 22.8387 79.6477 23.3974 79.875 23.8557C80.1061 24.3103 80.4261 24.6569 80.8352 24.8955C81.2443 25.1304 81.7197 25.2478 82.2614 25.2478C82.6136 25.2478 82.9318 25.1985 83.2159 25.1001C83.5038 24.9978 83.7519 24.8463 83.9602 24.6455C84.1686 24.441 84.3295 24.1872 84.4432 23.8841L85.7386 24.2478C85.6023 24.6872 85.3731 25.0735 85.0511 25.4069C84.7292 25.7364 84.3314 25.994 83.858 26.1796C83.3845 26.3614 82.8523 26.4523 82.2614 26.4523Z" fill="#F5F5F5"/>
<path d="M107 22.2705L103 18.2705L99 22.2705" stroke="#F5F5F5" stroke-width="1.6" stroke-linecap="round" stroke-linejoin="round"/>
<defs>
<clipPath id="clip0_109_3485">
<rect width="16" height="16" fill="white" transform="translate(12 12.2705)"/>
</clipPath>
</defs>
</svg>
