<svg width="55" height="41" viewBox="0 0 55 41" fill="none" xmlns="http://www.w3.org/2000/svg">
<path d="M0 8.27051C0 3.85223 3.58172 0.270508 8 0.270508H55V40.2705H8C3.58172 40.2705 0 36.6888 0 32.2705V8.27051Z" fill="#006FFF"/>
<path d="M11.1058 23.6037L7.77246 20.2703L11.1058 16.937M15.7725 23.6037L12.4391 20.2703L15.7725 16.937" stroke="white" stroke-width="1.6" stroke-linecap="round" stroke-linejoin="round"/>
<path d="M46.3731 27.2602C43.6817 31.9219 37.7207 33.5192 33.059 30.8277C28.3973 28.1363 26.8001 22.1753 29.4915 17.5136C32.183 12.8519 38.1439 11.2546 42.8056 13.9461C47.4673 16.6375 49.0646 22.5985 46.3731 27.2602ZM31.5371 18.6946C29.4979 22.2266 30.7081 26.7429 34.24 28.7821C37.772 30.8213 42.2883 29.6111 44.3275 26.0792C46.3667 22.5472 45.1565 18.0309 41.6246 15.9917C38.0926 13.9525 33.5763 15.1627 31.5371 18.6946Z" fill="white"/>
<path d="M40.6234 25.575C38.9089 27.0879 36.2926 26.9244 34.7797 25.21C33.2668 23.4955 33.4303 20.8792 35.1447 19.3663C36.594 18.0875 39.4856 17.9294 41.5942 18.3011C42.256 18.4178 42.7421 18.9741 42.7503 19.6462C42.7755 21.7131 42.0682 24.3001 40.6234 25.575ZM36.5144 20.9185C35.6572 21.6749 35.5754 22.9831 36.3319 23.8403C37.0883 24.6975 38.3965 24.7792 39.2537 24.0228C40.111 23.2664 40.1927 21.9582 39.4362 21.101C38.6798 20.2437 37.3716 20.162 36.5144 20.9185Z" fill="white"/>
<path d="M29.8221 29.9858C29.5765 30.4112 29.0182 30.5487 28.575 30.2928C28.1319 30.037 27.9718 29.4847 28.2174 29.0593C28.463 28.6339 29.0213 28.4965 29.4645 28.7523C29.9076 29.0081 30.0677 29.5604 29.8221 29.9858Z" fill="white"/>
<path d="M43.8154 12.1117C45.8448 12.1531 47.4799 13.7883 47.5214 15.8176C47.5628 13.7883 49.198 12.1531 51.2273 12.1117C49.198 12.0703 47.5628 10.4351 47.5214 8.40576C47.4799 10.4351 45.8448 12.0703 43.8154 12.1117Z" fill="white"/>
</svg>
