<svg width="150" height="24" viewBox="0 0 150 24" fill="none" xmlns="http://www.w3.org/2000/svg">
<path d="M79.1324 19.125C76.4409 23.7867 70.48 25.3839 65.8183 22.6925C61.1566 20.001 59.5593 14.0401 62.2508 9.37835C64.9422 4.71662 70.9032 3.11939 75.5649 5.81084C80.2266 8.50229 81.8238 14.4632 79.1324 19.125ZM64.2964 10.5594C62.2572 14.0913 63.4674 18.6077 66.9993 20.6468C70.5313 22.686 75.0476 21.4759 77.0868 17.9439C79.126 14.4119 77.9158 9.89564 74.3839 7.85645C70.8519 5.81727 66.3356 7.02741 64.2964 10.5594Z" fill="#0B4096"/>
<path d="M73.3827 17.4402C71.6682 18.9531 69.0519 18.7897 67.539 17.0752C66.0261 15.3607 66.1895 12.7444 67.904 11.2315C69.3532 9.9527 72.2448 9.79464 74.3535 10.1664C75.0153 10.283 75.5014 10.8394 75.5096 11.5114C75.5348 13.5783 74.8274 16.1653 73.3827 17.4402ZM69.2737 12.7837C68.4164 13.5401 68.3347 14.8483 69.0912 15.7055C69.8476 16.5628 71.1558 16.6445 72.013 15.888C72.8702 15.1316 72.952 13.8234 72.1955 12.9662C71.4391 12.109 70.1309 12.0273 69.2737 12.7837Z" fill="#0B4096"/>
<path d="M62.5814 21.851C62.3358 22.2764 61.7775 22.4139 61.3343 22.1581C60.8912 21.9022 60.7311 21.35 60.9767 20.9246C61.2223 20.4992 61.7806 20.3617 62.2237 20.6175C62.6669 20.8734 62.827 21.4256 62.5814 21.851Z" fill="#0B4096"/>
<path d="M76.5747 3.97644C78.604 4.01786 80.2392 5.65304 80.2806 7.68237C80.3221 5.65304 81.9572 4.01786 83.9866 3.97644C81.9572 3.93503 80.3221 2.29984 80.2806 0.270508C80.2392 2.29984 78.604 3.93503 76.5747 3.97644Z" fill="#0B4096"/>
<path d="M142.545 9.99727C142.535 10.5495 142.525 11.0845 142.515 11.6022C142.511 11.8241 142.506 12.0509 142.501 12.2826C142.501 12.5144 142.498 12.7437 142.493 12.9705C142.493 13.1923 142.491 13.4068 142.486 13.6139C142.486 13.8161 142.486 13.996 142.486 14.1538C142.486 14.4842 142.488 14.8836 142.493 15.352C142.498 15.8204 142.503 16.3011 142.508 16.7942C142.518 17.2873 142.53 17.7606 142.545 18.2142C142.56 18.6679 142.577 19.0451 142.597 19.3458C142.666 19.3557 142.757 19.368 142.87 19.3828C142.989 19.3927 143.112 19.4025 143.24 19.4124C143.368 19.4173 143.494 19.4223 143.617 19.4272C143.741 19.4321 143.844 19.4346 143.928 19.4346C144.273 19.4346 144.626 19.4124 144.986 19.368C145.351 19.3187 145.701 19.23 146.036 19.1018C146.376 18.9736 146.694 18.7985 146.99 18.5766C147.291 18.3498 147.552 18.0589 147.774 17.7039C148.001 17.3489 148.178 16.9224 148.307 16.4244C148.435 15.9215 148.499 15.3298 148.499 14.6494C148.499 13.895 148.408 13.2244 148.225 12.6376C148.043 12.046 147.774 11.548 147.419 11.1437C147.069 10.7393 146.633 10.4336 146.11 10.2265C145.592 10.0145 144.996 9.90852 144.32 9.90852C144.187 9.90852 144.037 9.91345 143.869 9.92331C143.701 9.92824 143.534 9.93564 143.366 9.9455C143.203 9.95043 143.048 9.96029 142.9 9.97508C142.757 9.98494 142.639 9.99234 142.545 9.99727ZM140.925 9.33163C141.039 9.33656 141.145 9.34149 141.243 9.34642C141.327 9.35135 141.413 9.35628 141.502 9.36121C141.591 9.36121 141.662 9.36121 141.717 9.36121C141.81 9.36121 141.966 9.35628 142.183 9.34642C142.404 9.33656 142.656 9.3267 142.937 9.31684C143.218 9.30698 143.509 9.29711 143.81 9.28725C144.115 9.27739 144.401 9.27246 144.668 9.27246C145.383 9.27246 146.063 9.36121 146.709 9.53872C147.355 9.71622 147.922 10.0071 148.41 10.4114C148.898 10.8158 149.285 11.3458 149.571 12.0016C149.857 12.6574 150 13.4635 150 14.4201C150 15.1054 149.924 15.7218 149.771 16.2691C149.623 16.8164 149.413 17.2996 149.142 17.7187C148.871 18.1378 148.546 18.4978 148.166 18.7985C147.791 19.0944 147.375 19.3384 146.916 19.5307C146.462 19.723 145.977 19.8635 145.459 19.9523C144.941 20.0411 144.406 20.0854 143.854 20.0854C143.657 20.0854 143.418 20.078 143.137 20.0632C142.861 20.0534 142.582 20.0411 142.301 20.0263C142.02 20.0115 141.754 19.9967 141.502 19.9819C141.256 19.972 141.063 19.9671 140.925 19.9671V19.9375C140.955 19.834 140.982 19.7058 141.007 19.5529C141.036 19.4001 141.061 19.2102 141.081 18.9834C141.1 18.7566 141.115 18.4879 141.125 18.1773C141.135 17.8617 141.14 17.4944 141.14 17.0753V12.2604C141.14 11.8413 141.135 11.474 141.125 11.1584C141.115 10.8379 141.1 10.5643 141.081 10.3375C141.061 10.1057 141.036 9.91098 141.007 9.7532C140.982 9.59542 140.955 9.46476 140.925 9.36121V9.33163Z" fill="#0B4096"/>
<path d="M136.968 19.9376C136.998 19.8341 137.025 19.7059 137.05 19.553C137.074 19.4002 137.096 19.2103 137.116 18.9835C137.136 18.7567 137.151 18.488 137.161 18.1774C137.17 17.8618 137.175 17.4945 137.175 17.0754V12.2606C137.175 11.8415 137.17 11.4766 137.161 11.166C137.151 10.8504 137.136 10.5792 137.116 10.3524C137.096 10.1207 137.074 9.92836 137.05 9.7755C137.025 9.62265 136.998 9.49446 136.968 9.39091V9.36133H138.736V9.39091C138.706 9.49446 138.677 9.62265 138.647 9.7755C138.623 9.92836 138.6 10.1207 138.581 10.3524C138.566 10.5792 138.551 10.8504 138.536 11.166C138.526 11.4766 138.521 11.8415 138.521 12.2606V17.0754C138.521 17.4945 138.526 17.8618 138.536 18.1774C138.551 18.488 138.566 18.7567 138.581 18.9835C138.6 19.2103 138.623 19.4002 138.647 19.553C138.677 19.7059 138.706 19.8341 138.736 19.9376V19.9672H136.968V19.9376Z" fill="#0B4096"/>
<path d="M133.219 14.8935C133.021 14.8886 132.775 14.8861 132.479 14.8861C132.183 14.8812 131.86 14.8763 131.51 14.8714C131.165 14.8664 130.803 14.864 130.423 14.864C130.048 14.859 129.681 14.8566 129.321 14.8566C128.961 14.8516 128.618 14.8516 128.293 14.8566C127.968 14.8615 127.684 14.8689 127.442 14.8788V17.0754C127.442 17.4945 127.447 17.8618 127.457 18.1774C127.472 18.488 127.487 18.7567 127.502 18.9835C127.521 19.2103 127.543 19.4002 127.568 19.553C127.598 19.7059 127.627 19.8341 127.657 19.9376V19.9672H125.882V19.9376C125.911 19.8341 125.939 19.7059 125.963 19.553C125.993 19.4002 126.017 19.2103 126.037 18.9835C126.057 18.7567 126.072 18.488 126.082 18.1774C126.091 17.8618 126.096 17.4945 126.096 17.0754V12.2606C126.096 11.8415 126.091 11.4766 126.082 11.166C126.072 10.8504 126.057 10.5792 126.037 10.3524C126.017 10.1207 125.993 9.92836 125.963 9.7755C125.939 9.62265 125.911 9.49446 125.882 9.39091V9.36133H127.657V9.39091C127.627 9.49446 127.598 9.62265 127.568 9.7755C127.543 9.92836 127.521 10.1207 127.502 10.3524C127.487 10.5792 127.472 10.8504 127.457 11.166C127.447 11.4766 127.442 11.8415 127.442 12.2606V14.1539C127.699 14.1638 127.99 14.1712 128.315 14.1761C128.641 14.1761 128.981 14.1761 129.336 14.1761C129.691 14.1712 130.051 14.1663 130.416 14.1613C130.785 14.1564 131.14 14.1515 131.481 14.1465C131.826 14.1367 132.146 14.1268 132.442 14.117C132.743 14.1071 133.002 14.0972 133.219 14.0874V12.2606C133.219 11.8415 133.211 11.4766 133.196 11.166C133.187 10.8504 133.172 10.5792 133.152 10.3524C133.137 10.1207 133.115 9.92836 133.086 9.7755C133.061 9.62265 133.034 9.49446 133.004 9.39091V9.36133H134.779V9.39091C134.75 9.49446 134.72 9.62265 134.69 9.7755C134.666 9.92836 134.644 10.1207 134.624 10.3524C134.604 10.5792 134.589 10.8504 134.58 11.166C134.57 11.4766 134.565 11.8415 134.565 12.2606V17.0754C134.565 17.4945 134.57 17.8618 134.58 18.1774C134.589 18.488 134.604 18.7567 134.624 18.9835C134.644 19.2103 134.666 19.4002 134.69 19.553C134.72 19.7059 134.75 19.8341 134.779 19.9376V19.9672H133.004V19.9376C133.034 19.8341 133.061 19.7059 133.086 19.553C133.115 19.4002 133.137 19.2103 133.152 18.9835C133.172 18.7567 133.187 18.488 133.196 18.1774C133.211 17.8618 133.219 17.4945 133.219 17.0754V14.8935Z" fill="#0B4096"/>
<path d="M123.412 11.0475H123.249C123.209 10.9341 123.145 10.8059 123.057 10.6629C122.973 10.5199 122.859 10.3868 122.716 10.2636C122.578 10.1354 122.408 10.0293 122.206 9.94553C122.009 9.86171 121.775 9.81979 121.503 9.81979C121.262 9.81979 121.047 9.85677 120.86 9.93073C120.673 10.0047 120.515 10.1082 120.387 10.2414C120.263 10.3745 120.17 10.5323 120.106 10.7147C120.041 10.8971 120.009 11.0993 120.009 11.3212C120.009 11.6762 120.108 12.0164 120.305 12.3418C120.507 12.6623 120.759 12.9804 121.06 13.2959C121.36 13.6115 121.686 13.927 122.036 14.2426C122.386 14.5582 122.711 14.8861 123.012 15.2263C123.313 15.5665 123.562 15.924 123.759 16.2987C123.961 16.6685 124.062 17.0679 124.062 17.4969C124.062 17.8173 124.006 18.1403 123.892 18.4657C123.784 18.7862 123.614 19.0747 123.382 19.3311C123.15 19.5875 122.852 19.797 122.487 19.9597C122.122 20.1175 121.688 20.1964 121.185 20.1964C120.904 20.1964 120.636 20.1693 120.379 20.115C120.128 20.0657 119.894 20.0041 119.677 19.9301C119.465 19.8512 119.272 19.7674 119.1 19.6787C118.932 19.5899 118.794 19.5086 118.686 19.4346L118.856 17.8001H119.041C119.095 18.0318 119.184 18.2537 119.307 18.4657C119.43 18.6728 119.58 18.8577 119.758 19.0204C119.94 19.1782 120.147 19.3064 120.379 19.405C120.611 19.4987 120.865 19.5455 121.141 19.5455C121.392 19.5455 121.617 19.5086 121.814 19.4346C122.016 19.3557 122.189 19.2497 122.332 19.1166C122.475 18.9785 122.583 18.8158 122.657 18.6284C122.736 18.4411 122.776 18.2365 122.776 18.0146C122.776 17.7039 122.719 17.418 122.605 17.1566C122.492 16.8904 122.342 16.6389 122.154 16.4022C121.972 16.1656 121.762 15.9363 121.526 15.7144C121.294 15.4925 121.055 15.2707 120.808 15.0488C120.562 14.822 120.32 14.5902 120.083 14.3535C119.852 14.1169 119.642 13.8654 119.455 13.5992C119.272 13.328 119.124 13.0395 119.011 12.7338C118.898 12.4232 118.841 12.083 118.841 11.7132C118.841 11.3236 118.915 10.9736 119.063 10.6629C119.216 10.3474 119.415 10.0787 119.662 9.85677C119.913 9.63489 120.197 9.46479 120.512 9.34645C120.828 9.22811 121.153 9.16895 121.489 9.16895C121.735 9.16895 121.962 9.18867 122.169 9.22811C122.376 9.26756 122.561 9.3144 122.724 9.36864C122.891 9.42288 123.037 9.47711 123.16 9.53135C123.283 9.58559 123.384 9.62996 123.463 9.66448L123.412 11.0475Z" fill="#0B4096"/>
<path d="M111.6 17.0753C111.6 17.4944 111.605 17.8617 111.615 18.1773C111.63 18.4879 111.644 18.7566 111.659 18.9834C111.679 19.2102 111.701 19.4001 111.726 19.5529C111.755 19.7058 111.785 19.834 111.815 19.9375V19.9671H110.04V19.9375C110.069 19.834 110.096 19.7058 110.121 19.5529C110.15 19.4001 110.173 19.2102 110.187 18.9834C110.207 18.7566 110.222 18.4879 110.232 18.1773C110.247 17.8666 110.254 17.4993 110.254 17.0753V12.2604C110.254 11.8413 110.247 11.4765 110.232 11.1658C110.222 10.8503 110.207 10.5791 110.187 10.3523C110.173 10.1255 110.15 9.93564 110.121 9.78279C110.096 9.625 110.069 9.49434 110.04 9.3908V9.36121L110.35 9.3908C110.444 9.40066 110.547 9.40805 110.661 9.41299C110.779 9.41299 110.9 9.41299 111.023 9.41299C111.216 9.41299 111.474 9.3908 111.8 9.34642C112.13 9.29711 112.549 9.27246 113.057 9.27246C113.53 9.27246 113.967 9.33656 114.366 9.46476C114.771 9.59295 115.121 9.78032 115.416 10.0269C115.712 10.2734 115.942 10.5766 116.104 10.9366C116.272 11.2916 116.356 11.6959 116.356 12.1495C116.356 12.5045 116.309 12.8349 116.215 13.1406C116.126 13.4413 115.998 13.715 115.831 13.9615C115.668 14.2081 115.471 14.4275 115.239 14.6198C115.007 14.8071 114.748 14.9649 114.462 15.0931L117.058 18.7394C117.187 18.9218 117.305 19.0796 117.413 19.2127C117.527 19.3458 117.633 19.4617 117.731 19.5603C117.835 19.654 117.934 19.7329 118.027 19.797C118.121 19.8562 118.217 19.903 118.316 19.9375V19.9671H116.178C116.163 19.8734 116.114 19.7501 116.03 19.5973C115.951 19.4395 115.858 19.2842 115.749 19.1313L113.131 15.4407C113.018 15.4506 112.904 15.4605 112.791 15.4703C112.677 15.4752 112.562 15.4777 112.443 15.4777C112.305 15.4777 112.165 15.4728 112.022 15.4629C111.884 15.4531 111.743 15.4358 111.6 15.4111V17.0753ZM111.6 14.8343C111.733 14.8638 111.869 14.886 112.007 14.9008C112.145 14.9107 112.278 14.9156 112.406 14.9156C112.776 14.9156 113.114 14.8614 113.42 14.7529C113.725 14.6395 113.984 14.4694 114.196 14.2426C114.413 14.0158 114.581 13.7347 114.699 13.3994C114.817 13.0592 114.877 12.6623 114.877 12.2087C114.877 11.8389 114.835 11.5036 114.751 11.2028C114.667 10.902 114.541 10.6481 114.374 10.441C114.211 10.229 114.004 10.0663 113.752 9.95289C113.501 9.83456 113.208 9.77539 112.872 9.77539C112.532 9.77539 112.261 9.79265 112.059 9.82716C111.857 9.86168 111.704 9.89866 111.6 9.9381V14.8343Z" fill="#0B4096"/>
<path d="M106.874 12.2606C106.874 11.8415 106.869 11.4766 106.859 11.166C106.849 10.8504 106.835 10.5792 106.815 10.3524C106.795 10.1207 106.773 9.92836 106.748 9.7755C106.724 9.62265 106.697 9.49446 106.667 9.39091V9.36133H107.983V9.39091C107.954 9.49446 107.924 9.62265 107.895 9.7755C107.87 9.92836 107.848 10.1207 107.828 10.3524C107.813 10.5792 107.799 10.8504 107.784 11.166C107.774 11.4766 107.769 11.8415 107.769 12.2606V16.2544C107.769 16.9595 107.668 17.561 107.466 18.059C107.264 18.557 106.983 18.9663 106.623 19.2868C106.263 19.6023 105.831 19.8316 105.328 19.9746C104.825 20.1225 104.276 20.1965 103.679 20.1965C103.082 20.1965 102.525 20.1275 102.007 19.9894C101.495 19.8513 101.046 19.6295 100.661 19.3238C100.282 19.0131 99.9834 18.6137 99.7665 18.1256C99.5495 17.6325 99.441 17.0335 99.441 16.3284V12.2606C99.441 11.8415 99.4361 11.4766 99.4263 11.166C99.4164 10.8504 99.4016 10.5792 99.3819 10.3524C99.3622 10.1207 99.3375 9.92836 99.3079 9.7755C99.2833 9.62265 99.2561 9.49446 99.2266 9.39091V9.36133H101.002V9.39091C100.972 9.49446 100.942 9.62265 100.913 9.7755C100.888 9.92836 100.866 10.1207 100.846 10.3524C100.827 10.5792 100.812 10.8504 100.802 11.166C100.792 11.4766 100.787 11.8415 100.787 12.2606V16.4097C100.787 16.9965 100.873 17.4821 101.046 17.8667C101.223 18.2464 101.455 18.5496 101.741 18.7765C102.027 18.9983 102.353 19.1536 102.717 19.2424C103.082 19.3312 103.455 19.3755 103.834 19.3755C104.214 19.3755 104.586 19.3312 104.951 19.2424C105.316 19.1536 105.639 18.9983 105.92 18.7765C106.206 18.5496 106.435 18.2464 106.608 17.8667C106.785 17.4821 106.874 16.9965 106.874 16.4097V12.2606Z" fill="#0B4096"/>
<path d="M83.3325 19.9376C83.3868 19.8587 83.4484 19.7429 83.5174 19.59C83.5864 19.4322 83.6407 19.235 83.6801 18.9983C83.7344 18.6532 83.7935 18.2661 83.8576 17.8372C83.9267 17.4033 83.9957 16.9496 84.0647 16.4763C84.1387 16.0029 84.2102 15.5197 84.2792 15.0267C84.3532 14.5287 84.4222 14.0405 84.4863 13.5623C84.5553 13.0791 84.6194 12.6156 84.6786 12.1718C84.7427 11.7231 84.7994 11.3139 84.8487 10.9441C84.898 10.5743 84.9375 10.2538 84.967 9.98259C85.0016 9.70647 85.0262 9.49939 85.041 9.36133H85.9803L90.6324 18.059L95.2475 9.36133H95.9501L97.1631 18.1478C97.1976 18.4239 97.2346 18.6606 97.274 18.8578C97.3134 19.055 97.3529 19.2251 97.3923 19.3681C97.4318 19.5062 97.4688 19.6221 97.5033 19.7157C97.5427 19.8045 97.5797 19.8785 97.6142 19.9376V19.9672H95.7504V19.9376C95.7751 19.8834 95.7973 19.7946 95.817 19.6714C95.8416 19.5481 95.854 19.4002 95.854 19.2276C95.854 19.1635 95.8515 19.0994 95.8466 19.0353C95.8416 18.9663 95.8342 18.8923 95.8244 18.8134L94.8851 11.7281L90.5214 19.9376L90.0111 19.8785L85.6179 11.6541C85.4453 12.8227 85.2949 13.9025 85.1667 14.8935C85.1125 15.3176 85.0583 15.7416 85.004 16.1657C84.9498 16.5848 84.9005 16.9768 84.8561 17.3416C84.8167 17.7065 84.7846 18.0295 84.7599 18.3105C84.7353 18.5866 84.723 18.7912 84.723 18.9244C84.723 19.092 84.7279 19.2399 84.7378 19.3681C84.7476 19.4963 84.7575 19.6048 84.7673 19.6936C84.7821 19.7971 84.7969 19.8883 84.8117 19.9672H83.3325V19.9376Z" fill="#0B4096"/>
<path d="M1.41242 18.2705V10.9978H3.86981C4.44036 10.9978 4.90674 11.1008 5.26895 11.3067C5.63354 11.5103 5.90342 11.7861 6.07861 12.1341C6.2538 12.4822 6.3414 12.8704 6.3414 13.2989C6.3414 13.7274 6.2538 14.1169 6.07861 14.4672C5.90579 14.8176 5.63827 15.097 5.27606 15.3053C4.91384 15.5113 4.44983 15.6143 3.88401 15.6143H2.12265V14.833H3.8556C4.24623 14.833 4.55991 14.7655 4.79665 14.6306C5.0334 14.4956 5.20503 14.3134 5.31157 14.0837C5.42047 13.8517 5.47492 13.5901 5.47492 13.2989C5.47492 13.0077 5.42047 12.7473 5.31157 12.5177C5.20503 12.288 5.03221 12.1081 4.7931 11.9779C4.55399 11.8453 4.23676 11.779 3.8414 11.779H2.2931V18.2705H1.41242ZM9.80376 18.3841C9.31133 18.3841 8.87928 18.267 8.50759 18.0326C8.13827 17.7982 7.84945 17.4703 7.64111 17.0489C7.43515 16.6275 7.33216 16.1351 7.33216 15.5716C7.33216 15.0035 7.43515 14.5075 7.64111 14.0837C7.84945 13.6599 8.13827 13.3309 8.50759 13.0965C8.87928 12.8621 9.31133 12.7449 9.80376 12.7449C10.2962 12.7449 10.7271 12.8621 11.0964 13.0965C11.4681 13.3309 11.7569 13.6599 11.9628 14.0837C12.1712 14.5075 12.2753 15.0035 12.2753 15.5716C12.2753 16.1351 12.1712 16.6275 11.9628 17.0489C11.7569 17.4703 11.4681 17.7982 11.0964 18.0326C10.7271 18.267 10.2962 18.3841 9.80376 18.3841ZM9.80376 17.6313C10.1778 17.6313 10.4856 17.5354 10.7271 17.3437C10.9685 17.1519 11.1473 16.8998 11.2633 16.5873C11.3793 16.2748 11.4373 15.9362 11.4373 15.5716C11.4373 15.2071 11.3793 14.8673 11.2633 14.5525C11.1473 14.2376 10.9685 13.9831 10.7271 13.789C10.4856 13.5948 10.1778 13.4978 9.80376 13.4978C9.4297 13.4978 9.12194 13.5948 8.88046 13.789C8.63898 13.9831 8.46024 14.2376 8.34424 14.5525C8.22823 14.8673 8.17023 15.2071 8.17023 15.5716C8.17023 15.9362 8.22823 16.2748 8.34424 16.5873C8.46024 16.8998 8.63898 17.1519 8.88046 17.3437C9.12194 17.5354 9.4297 17.6313 9.80376 17.6313ZM14.6049 18.2705L12.943 12.816H13.8236L15.0026 16.9921H15.0594L16.2242 12.816H17.1191L18.2697 16.9779H18.3265L19.5055 12.816H20.3861L18.7242 18.2705H17.9003L16.7072 14.0802H16.6219L15.4288 18.2705H14.6049ZM23.5955 18.3841C23.0699 18.3841 22.6166 18.2681 22.2354 18.0361C21.8566 17.8018 21.5642 17.4751 21.3583 17.056C21.1547 16.6346 21.0529 16.1446 21.0529 15.5858C21.0529 15.0271 21.1547 14.5347 21.3583 14.1086C21.5642 13.6801 21.8507 13.3463 22.2176 13.1072C22.587 12.8657 23.0178 12.7449 23.5103 12.7449C23.7943 12.7449 24.0749 12.7923 24.3519 12.887C24.6289 12.9817 24.881 13.1356 25.1083 13.3486C25.3355 13.5593 25.5166 13.8387 25.6516 14.1867C25.7865 14.5347 25.854 14.9632 25.854 15.4722V15.8273H21.6495V15.1029H25.0017C25.0017 14.7951 24.9402 14.5205 24.8171 14.279C24.6963 14.0376 24.5235 13.847 24.2986 13.7073C24.0761 13.5676 23.8133 13.4978 23.5103 13.4978C23.1764 13.4978 22.8876 13.5806 22.6438 13.7464C22.4023 13.9097 22.2165 14.1228 22.0862 14.3856C21.956 14.6483 21.8909 14.9301 21.8909 15.2307V15.7137C21.8909 16.1256 21.962 16.4748 22.104 16.7613C22.2484 17.0454 22.4485 17.262 22.7041 17.4111C22.9598 17.5579 23.2569 17.6313 23.5955 17.6313C23.8157 17.6313 24.0145 17.6005 24.1921 17.539C24.372 17.4751 24.5271 17.3804 24.6573 17.2549C24.7875 17.127 24.8881 16.9684 24.9591 16.779L25.7688 17.0063C25.6835 17.2809 25.5403 17.5224 25.3391 17.7307C25.1379 17.9367 24.8893 18.0977 24.5934 18.2137C24.2974 18.3273 23.9648 18.3841 23.5955 18.3841ZM27.1289 18.2705V12.816H27.9385V13.6398H27.9953C28.0948 13.3699 28.2747 13.151 28.5351 12.9829C28.7955 12.8148 29.0891 12.7307 29.4158 12.7307C29.4773 12.7307 29.5543 12.7319 29.6466 12.7343C29.7389 12.7367 29.8088 12.7402 29.8561 12.7449V13.5972C29.8277 13.5901 29.7626 13.5795 29.6608 13.5653C29.5614 13.5487 29.456 13.5404 29.3448 13.5404C29.0796 13.5404 28.8429 13.596 28.6345 13.7073C28.4286 13.8162 28.2652 13.9677 28.1445 14.1618C28.0261 14.3536 27.9669 14.5726 27.9669 14.8188V18.2705H27.1289ZM32.9705 18.3841C32.4449 18.3841 31.9916 18.2681 31.6104 18.0361C31.2316 17.8018 30.9392 17.4751 30.7333 17.056C30.5297 16.6346 30.4279 16.1446 30.4279 15.5858C30.4279 15.0271 30.5297 14.5347 30.7333 14.1086C30.9392 13.6801 31.2257 13.3463 31.5926 13.1072C31.962 12.8657 32.3928 12.7449 32.8853 12.7449C33.1693 12.7449 33.4499 12.7923 33.7269 12.887C34.0039 12.9817 34.256 13.1356 34.4833 13.3486C34.7105 13.5593 34.8916 13.8387 35.0266 14.1867C35.1615 14.5347 35.229 14.9632 35.229 15.4722V15.8273H31.0245V15.1029H34.3767C34.3767 14.7951 34.3152 14.5205 34.1921 14.279C34.0713 14.0376 33.8985 13.847 33.6736 13.7073C33.4511 13.5676 33.1883 13.4978 32.8853 13.4978C32.5514 13.4978 32.2626 13.5806 32.0188 13.7464C31.7773 13.9097 31.5915 14.1228 31.4612 14.3856C31.331 14.6483 31.2659 14.9301 31.2659 15.2307V15.7137C31.2659 16.1256 31.337 16.4748 31.479 16.7613C31.6234 17.0454 31.8235 17.262 32.0791 17.4111C32.3348 17.5579 32.6319 17.6313 32.9705 17.6313C33.1907 17.6313 33.3895 17.6005 33.5671 17.539C33.747 17.4751 33.9021 17.3804 34.0323 17.2549C34.1625 17.127 34.2631 16.9684 34.3341 16.779L35.1438 17.0063C35.0585 17.2809 34.9153 17.5224 34.7141 17.7307C34.5129 17.9367 34.2643 18.0977 33.9684 18.2137C33.6724 18.3273 33.3398 18.3841 32.9705 18.3841ZM38.5635 18.3841C38.109 18.3841 37.7077 18.2693 37.3597 18.0397C37.0117 17.8077 36.7394 17.481 36.5429 17.0596C36.3464 16.6358 36.2482 16.1351 36.2482 15.5574C36.2482 14.9845 36.3464 14.4874 36.5429 14.066C36.7394 13.6446 37.0129 13.319 37.3632 13.0894C37.7136 12.8598 38.1184 12.7449 38.5777 12.7449C38.9328 12.7449 39.2134 12.8041 39.4193 12.9225C39.6277 13.0385 39.7863 13.1711 39.8952 13.3202C40.0065 13.467 40.0929 13.5877 40.1544 13.6824H40.2255V10.9978H41.0635V18.2705H40.2539V17.4324H40.1544C40.0929 17.5319 40.0053 17.6573 39.8916 17.8089C39.778 17.958 39.6158 18.0918 39.4051 18.2101C39.1944 18.3261 38.9139 18.3841 38.5635 18.3841ZM38.6772 17.6313C39.0133 17.6313 39.2974 17.5437 39.5294 17.3685C39.7614 17.191 39.9378 16.9459 40.0585 16.6334C40.1793 16.3186 40.2397 15.9552 40.2397 15.5432C40.2397 15.136 40.1805 14.7797 40.0621 14.4743C39.9437 14.1666 39.7685 13.9275 39.5365 13.757C39.3045 13.5842 39.0181 13.4978 38.6772 13.4978C38.322 13.4978 38.0261 13.5889 37.7894 13.7712C37.555 13.9511 37.3786 14.1962 37.2603 14.5063C37.1443 14.8141 37.0862 15.1597 37.0862 15.5432C37.0862 15.9315 37.1454 16.2842 37.2638 16.6015C37.3845 16.9163 37.5621 17.1673 37.7965 17.3543C38.0332 17.539 38.3268 17.6313 38.6772 17.6313ZM45.6409 18.2705V10.9978H46.479V13.6824H46.55C46.6116 13.5877 46.6968 13.467 46.8057 13.3202C46.917 13.1711 47.0756 13.0385 47.2816 12.9225C47.4899 12.8041 47.7716 12.7449 48.1267 12.7449C48.586 12.7449 48.9908 12.8598 49.3412 13.0894C49.6916 13.319 49.965 13.6446 50.1615 14.066C50.358 14.4874 50.4563 14.9845 50.4563 15.5574C50.4563 16.1351 50.358 16.6358 50.1615 17.0596C49.965 17.481 49.6928 17.8077 49.3448 18.0397C48.9968 18.2693 48.5955 18.3841 48.1409 18.3841C47.7906 18.3841 47.51 18.3261 47.2993 18.2101C47.0886 18.0918 46.9264 17.958 46.8128 17.8089C46.6992 17.6573 46.6116 17.5319 46.55 17.4324H46.4506V18.2705H45.6409ZM46.4648 15.5432C46.4648 15.9552 46.5252 16.3186 46.6459 16.6334C46.7666 16.9459 46.943 17.191 47.175 17.3685C47.407 17.5437 47.6911 17.6313 48.0273 17.6313C48.3777 17.6313 48.6701 17.539 48.9044 17.3543C49.1412 17.1673 49.3187 16.9163 49.4371 16.6015C49.5578 16.2842 49.6182 15.9315 49.6182 15.5432C49.6182 15.1597 49.559 14.8141 49.4407 14.5063C49.3246 14.1962 49.1483 13.9511 48.9115 13.7712C48.6772 13.5889 48.3824 13.4978 48.0273 13.4978C47.6864 13.4978 47.3999 13.5842 47.1679 13.757C46.9359 13.9275 46.7607 14.1666 46.6424 14.4743C46.524 14.7797 46.4648 15.136 46.4648 15.5432ZM52.0827 20.316C51.9407 20.316 51.814 20.3041 51.7027 20.2805C51.5915 20.2591 51.5145 20.2378 51.4719 20.2165L51.685 19.4779C51.8886 19.53 52.0685 19.5489 52.2247 19.5347C52.381 19.5205 52.5195 19.4507 52.6402 19.3252C52.7633 19.2021 52.8758 19.002 52.9776 18.7251L53.1338 18.2989L51.1168 12.816H52.0259L53.5316 17.1626H53.5884L55.0941 12.816H56.0032L53.6878 19.066C53.5836 19.3477 53.4546 19.5809 53.3007 19.7655C53.1469 19.9526 52.9681 20.0911 52.7645 20.181C52.5633 20.271 52.336 20.316 52.0827 20.316Z" fill="black"/>
</svg>
