<svg width="20" height="20" viewBox="0 0 20 20" fill="none" xmlns="http://www.w3.org/2000/svg">
<path fill-rule="evenodd" clip-rule="evenodd" d="M10 2.14286C5.66062 2.14286 2.14286 5.66062 2.14286 10C2.14286 14.3394 5.66062 17.8571 10 17.8571C14.3394 17.8571 17.8571 14.3394 17.8571 10C17.8571 5.66062 14.3394 2.14286 10 2.14286ZM0 10C0 4.47715 4.47715 0 10 0C15.5228 0 20 4.47715 20 10C20 15.5228 15.5228 20 10 20C4.47715 20 0 15.5228 0 10Z" fill="#006FFF"/>
<path fill-rule="evenodd" clip-rule="evenodd" d="M10 5.35715C10.5918 5.35715 11.0715 5.83684 11.0715 6.42858V8.92858H13.5715C14.1632 8.92858 14.6429 9.40827 14.6429 10C14.6429 10.5917 14.1632 11.0714 13.5715 11.0714H11.0715V13.5714C11.0715 14.1632 10.5918 14.6429 10 14.6429C9.4083 14.6429 8.92861 14.1632 8.92861 13.5714V11.0714H6.42861C5.83687 11.0714 5.35718 10.5917 5.35718 10C5.35718 9.40827 5.83687 8.92858 6.42861 8.92858H8.92861V6.42858C8.92861 5.83684 9.4083 5.35715 10 5.35715Z" fill="#006FFF"/>
</svg>
