<svg width="150" height="24" viewBox="0 0 150 24" fill="none" xmlns="http://www.w3.org/2000/svg">
<path d="M79.1324 18.8544C76.4409 23.5162 70.48 25.1134 65.8183 22.4219C61.1566 19.7305 59.5593 13.7696 62.2508 9.10784C64.9422 4.44611 70.9032 2.84888 75.5649 5.54033C80.2266 8.23179 81.8238 14.1927 79.1324 18.8544ZM64.2964 10.2889C62.2572 13.8208 63.4674 18.3372 66.9993 20.3763C70.5313 22.4155 75.0476 21.2054 77.0868 17.6734C79.126 14.1414 77.9158 9.62513 74.3839 7.58595C70.8519 5.54676 66.3356 6.75691 64.2964 10.2889Z" fill="#0B4096"/>
<path d="M73.3827 17.1695C71.6682 18.6823 69.0519 18.5189 67.539 16.8044C66.0261 15.09 66.1895 12.4737 67.904 10.9608C69.3532 9.68195 72.2448 9.52389 74.3535 9.8956C75.0153 10.0123 75.5014 10.5686 75.5096 11.2406C75.5348 13.3076 74.8274 15.8946 73.3827 17.1695ZM69.2737 12.5129C68.4164 13.2694 68.3347 14.5775 69.0912 15.4348C69.8476 16.292 71.1558 16.3737 72.013 15.6173C72.8702 14.8608 72.952 13.5527 72.1955 12.6954C71.4391 11.8382 70.1309 11.7565 69.2737 12.5129Z" fill="#0B4096"/>
<path d="M62.5814 21.5803C62.3358 22.0057 61.7775 22.1432 61.3343 21.8873C60.8912 21.6315 60.7311 21.0792 60.9767 20.6538C61.2223 20.2284 61.7806 20.0909 62.2237 20.3468C62.6669 20.6026 62.827 21.1549 62.5814 21.5803Z" fill="#0B4096"/>
<path d="M76.5747 3.70593C78.604 3.74735 80.2392 5.38254 80.2806 7.41187C80.3221 5.38254 81.9572 3.74735 83.9866 3.70593C81.9572 3.66452 80.3221 2.02933 80.2806 0C80.2392 2.02933 78.604 3.66452 76.5747 3.70593Z" fill="#0B4096"/>
<path d="M142.545 9.72701C142.535 10.2792 142.525 10.8142 142.515 11.3319C142.511 11.5538 142.506 11.7806 142.501 12.0124C142.501 12.2441 142.498 12.4734 142.493 12.7002C142.493 12.9221 142.491 13.1366 142.486 13.3437C142.486 13.5458 142.486 13.7258 142.486 13.8836C142.486 14.2139 142.488 14.6133 142.493 15.0817C142.498 15.5501 142.503 16.0309 142.508 16.5239C142.518 17.017 142.53 17.4904 142.545 17.944C142.56 18.3976 142.577 18.7748 142.597 19.0756C142.666 19.0854 142.757 19.0978 142.87 19.1125C142.989 19.1224 143.112 19.1323 143.24 19.1421C143.368 19.1471 143.494 19.152 143.617 19.1569C143.741 19.1618 143.844 19.1643 143.928 19.1643C144.273 19.1643 144.626 19.1421 144.986 19.0978C145.351 19.0484 145.701 18.9597 146.036 18.8315C146.376 18.7033 146.694 18.5283 146.99 18.3064C147.291 18.0796 147.552 17.7887 147.774 17.4336C148.001 17.0786 148.178 16.6521 148.307 16.1541C148.435 15.6512 148.499 15.0595 148.499 14.3791C148.499 13.6247 148.408 12.9541 148.225 12.3674C148.043 11.7757 147.774 11.2777 147.419 10.8734C147.069 10.4691 146.633 10.1634 146.11 9.95628C145.592 9.74426 144.996 9.63825 144.32 9.63825C144.187 9.63825 144.037 9.64318 143.869 9.65305C143.701 9.65798 143.534 9.66537 143.366 9.67523C143.203 9.68016 143.048 9.69003 142.9 9.70482C142.757 9.71468 142.639 9.72208 142.545 9.72701ZM140.925 9.06137C141.039 9.0663 141.145 9.07123 141.243 9.07616C141.327 9.08109 141.413 9.08602 141.502 9.09095C141.591 9.09095 141.662 9.09095 141.717 9.09095C141.81 9.09095 141.966 9.08602 142.183 9.07616C142.404 9.0663 142.656 9.05643 142.937 9.04657C143.218 9.03671 143.509 9.02685 143.81 9.01699C144.115 9.00713 144.401 9.0022 144.668 9.0022C145.383 9.0022 146.063 9.09095 146.709 9.26845C147.355 9.44596 147.922 9.73687 148.41 10.1412C148.898 10.5455 149.285 11.0755 149.571 11.7313C149.857 12.3871 150 13.1933 150 14.1498C150 14.8352 149.924 15.4515 149.771 15.9988C149.623 16.5461 149.413 17.0293 149.142 17.4484C148.871 17.8675 148.546 18.2275 148.166 18.5283C147.791 18.8241 147.375 19.0682 146.916 19.2605C146.462 19.4528 145.977 19.5933 145.459 19.682C144.941 19.7708 144.406 19.8152 143.854 19.8152C143.657 19.8152 143.418 19.8078 143.137 19.793C142.861 19.7831 142.582 19.7708 142.301 19.756C142.02 19.7412 141.754 19.7264 141.502 19.7116C141.256 19.7018 141.063 19.6968 140.925 19.6968V19.6672C140.955 19.5637 140.982 19.4355 141.007 19.2827C141.036 19.1298 141.061 18.94 141.081 18.7132C141.1 18.4863 141.115 18.2176 141.125 17.907C141.135 17.5914 141.14 17.2241 141.14 16.805V11.9902C141.14 11.5711 141.135 11.2037 141.125 10.8882C141.115 10.5677 141.1 10.294 141.081 10.0672C141.061 9.83548 141.036 9.64072 141.007 9.48294C140.982 9.32516 140.955 9.19449 140.925 9.09095V9.06137Z" fill="#0B4096"/>
<path d="M136.968 19.6671C136.998 19.5636 137.025 19.4354 137.05 19.2825C137.074 19.1297 137.096 18.9398 137.116 18.713C137.136 18.4862 137.151 18.2175 137.161 17.9069C137.17 17.5913 137.175 17.224 137.175 16.8049V11.9901C137.175 11.5709 137.17 11.2061 137.161 10.8954C137.151 10.5799 137.136 10.3087 137.116 10.0819C137.096 9.85014 137.074 9.65785 137.05 9.505C137.025 9.35215 136.998 9.22395 136.968 9.1204V9.09082H138.736V9.1204C138.706 9.22395 138.677 9.35215 138.647 9.505C138.623 9.65785 138.6 9.85014 138.581 10.0819C138.566 10.3087 138.551 10.5799 138.536 10.8954C138.526 11.2061 138.521 11.5709 138.521 11.9901V16.8049C138.521 17.224 138.526 17.5913 138.536 17.9069C138.551 18.2175 138.566 18.4862 138.581 18.713C138.6 18.9398 138.623 19.1297 138.647 19.2825C138.677 19.4354 138.706 19.5636 138.736 19.6671V19.6967H136.968V19.6671Z" fill="#0B4096"/>
<path d="M133.219 14.623C133.021 14.6181 132.775 14.6156 132.479 14.6156C132.183 14.6107 131.86 14.6058 131.51 14.6008C131.165 14.5959 130.803 14.5935 130.423 14.5935C130.048 14.5885 129.681 14.5861 129.321 14.5861C128.961 14.5811 128.618 14.5811 128.293 14.5861C127.968 14.591 127.684 14.5984 127.442 14.6082V16.8049C127.442 17.224 127.447 17.5913 127.457 17.9069C127.472 18.2175 127.487 18.4862 127.502 18.713C127.521 18.9398 127.543 19.1297 127.568 19.2825C127.598 19.4354 127.627 19.5636 127.657 19.6671V19.6967H125.882V19.6671C125.911 19.5636 125.939 19.4354 125.963 19.2825C125.993 19.1297 126.017 18.9398 126.037 18.713C126.057 18.4862 126.072 18.2175 126.082 17.9069C126.091 17.5913 126.096 17.224 126.096 16.8049V11.9901C126.096 11.5709 126.091 11.2061 126.082 10.8954C126.072 10.5799 126.057 10.3087 126.037 10.0819C126.017 9.85014 125.993 9.65785 125.963 9.505C125.939 9.35215 125.911 9.22395 125.882 9.1204V9.09082H127.657V9.1204C127.627 9.22395 127.598 9.35215 127.568 9.505C127.543 9.65785 127.521 9.85014 127.502 10.0819C127.487 10.3087 127.472 10.5799 127.457 10.8954C127.447 11.2061 127.442 11.5709 127.442 11.9901V13.8834C127.699 13.8933 127.99 13.9007 128.315 13.9056C128.641 13.9056 128.981 13.9056 129.336 13.9056C129.691 13.9007 130.051 13.8958 130.416 13.8908C130.785 13.8859 131.14 13.881 131.481 13.876C131.826 13.8662 132.146 13.8563 132.442 13.8465C132.743 13.8366 133.002 13.8267 133.219 13.8169V11.9901C133.219 11.5709 133.211 11.2061 133.196 10.8954C133.187 10.5799 133.172 10.3087 133.152 10.0819C133.137 9.85014 133.115 9.65785 133.086 9.505C133.061 9.35215 133.034 9.22395 133.004 9.1204V9.09082H134.779V9.1204C134.75 9.22395 134.72 9.35215 134.69 9.505C134.666 9.65785 134.644 9.85014 134.624 10.0819C134.604 10.3087 134.589 10.5799 134.58 10.8954C134.57 11.2061 134.565 11.5709 134.565 11.9901V16.8049C134.565 17.224 134.57 17.5913 134.58 17.9069C134.589 18.2175 134.604 18.4862 134.624 18.713C134.644 18.9398 134.666 19.1297 134.69 19.2825C134.72 19.4354 134.75 19.5636 134.779 19.6671V19.6967H133.004V19.6671C133.034 19.5636 133.061 19.4354 133.086 19.2825C133.115 19.1297 133.137 18.9398 133.152 18.713C133.172 18.4862 133.187 18.2175 133.196 17.9069C133.211 17.5913 133.219 17.224 133.219 16.8049V14.623Z" fill="#0B4096"/>
<path d="M123.412 10.777H123.249C123.209 10.6636 123.145 10.5354 123.057 10.3924C122.973 10.2494 122.859 10.1163 122.716 9.99305C122.578 9.86485 122.408 9.75884 122.206 9.67502C122.009 9.5912 121.775 9.54929 121.503 9.54929C121.262 9.54929 121.047 9.58627 120.86 9.66023C120.673 9.73419 120.515 9.83773 120.387 9.97086C120.263 10.104 120.17 10.2618 120.106 10.4442C120.041 10.6266 120.009 10.8288 120.009 11.0507C120.009 11.4057 120.108 11.7459 120.305 12.0713C120.507 12.3918 120.759 12.7098 121.06 13.0254C121.36 13.341 121.686 13.6565 122.036 13.9721C122.386 14.2877 122.711 14.6156 123.012 14.9558C123.313 15.296 123.562 15.6535 123.759 16.0282C123.961 16.398 124.062 16.7974 124.062 17.2263C124.062 17.5468 124.006 17.8698 123.892 18.1952C123.784 18.5157 123.614 18.8042 123.382 19.0606C123.15 19.317 122.852 19.5265 122.487 19.6892C122.122 19.847 121.688 19.9259 121.185 19.9259C120.904 19.9259 120.636 19.8988 120.379 19.8445C120.128 19.7952 119.894 19.7336 119.677 19.6596C119.465 19.5807 119.272 19.4969 119.1 19.4082C118.932 19.3194 118.794 19.2381 118.686 19.1641L118.856 17.5296H119.041C119.095 17.7613 119.184 17.9832 119.307 18.1952C119.43 18.4023 119.58 18.5872 119.758 18.7499C119.94 18.9077 120.147 19.0359 120.379 19.1345C120.611 19.2282 120.865 19.275 121.141 19.275C121.392 19.275 121.617 19.2381 121.814 19.1641C122.016 19.0852 122.189 18.9792 122.332 18.8461C122.475 18.708 122.583 18.5453 122.657 18.3579C122.736 18.1706 122.776 17.9659 122.776 17.7441C122.776 17.4334 122.719 17.1475 122.605 16.8861C122.492 16.6199 122.342 16.3684 122.154 16.1317C121.972 15.8951 121.762 15.6658 121.526 15.4439C121.294 15.222 121.055 15.0001 120.808 14.7783C120.562 14.5515 120.32 14.3197 120.083 14.083C119.852 13.8464 119.642 13.5949 119.455 13.3286C119.272 13.0575 119.124 12.769 119.011 12.4633C118.898 12.1527 118.841 11.8125 118.841 11.4427C118.841 11.0531 118.915 10.7031 119.063 10.3924C119.216 10.0769 119.415 9.80815 119.662 9.58627C119.913 9.36439 120.197 9.19428 120.512 9.07594C120.828 8.95761 121.153 8.89844 121.489 8.89844C121.735 8.89844 121.962 8.91816 122.169 8.95761C122.376 8.99705 122.561 9.04389 122.724 9.09813C122.891 9.15237 123.037 9.2066 123.16 9.26084C123.283 9.31508 123.384 9.35946 123.463 9.39397L123.412 10.777Z" fill="#0B4096"/>
<path d="M111.6 16.805C111.6 17.2241 111.605 17.5914 111.615 17.907C111.63 18.2176 111.644 18.4863 111.659 18.7132C111.679 18.94 111.701 19.1298 111.726 19.2827C111.755 19.4355 111.785 19.5637 111.815 19.6672V19.6968H110.04V19.6672C110.069 19.5637 110.096 19.4355 110.121 19.2827C110.15 19.1298 110.173 18.94 110.187 18.7132C110.207 18.4863 110.222 18.2176 110.232 17.907C110.247 17.5964 110.254 17.229 110.254 16.805V11.9902C110.254 11.5711 110.247 11.2062 110.232 10.8956C110.222 10.58 110.207 10.3088 110.187 10.082C110.173 9.8552 110.15 9.66537 110.121 9.51252C110.096 9.35474 110.069 9.22408 110.04 9.12053V9.09095L110.35 9.12053C110.444 9.13039 110.547 9.13779 110.661 9.14272C110.779 9.14272 110.9 9.14272 111.023 9.14272C111.216 9.14272 111.474 9.12053 111.8 9.07616C112.13 9.02685 112.549 9.0022 113.057 9.0022C113.53 9.0022 113.967 9.0663 114.366 9.19449C114.771 9.32269 115.121 9.51006 115.416 9.75659C115.712 10.0031 115.942 10.3064 116.104 10.6663C116.272 11.0213 116.356 11.4256 116.356 11.8792C116.356 12.2343 116.309 12.5646 116.215 12.8703C116.126 13.1711 115.998 13.4447 115.831 13.6913C115.668 13.9378 115.471 14.1572 115.239 14.3495C115.007 14.5369 114.748 14.6947 114.462 14.8229L117.058 18.4691C117.187 18.6515 117.305 18.8093 117.413 18.9424C117.527 19.0756 117.633 19.1914 117.731 19.29C117.835 19.3837 117.934 19.4626 118.027 19.5267C118.121 19.5859 118.217 19.6327 118.316 19.6672V19.6968H116.178C116.163 19.6031 116.114 19.4799 116.03 19.327C115.951 19.1692 115.858 19.0139 115.749 18.8611L113.131 15.1705C113.018 15.1803 112.904 15.1902 112.791 15.2001C112.677 15.205 112.562 15.2075 112.443 15.2075C112.305 15.2075 112.165 15.2025 112.022 15.1927C111.884 15.1828 111.743 15.1655 111.6 15.1409V16.805ZM111.6 14.564C111.733 14.5936 111.869 14.6158 112.007 14.6306C112.145 14.6404 112.278 14.6454 112.406 14.6454C112.776 14.6454 113.114 14.5911 113.42 14.4826C113.725 14.3692 113.984 14.1991 114.196 13.9723C114.413 13.7455 114.581 13.4645 114.699 13.1292C114.817 12.789 114.877 12.392 114.877 11.9384C114.877 11.5686 114.835 11.2333 114.751 10.9326C114.667 10.6318 114.541 10.3779 114.374 10.1708C114.211 9.95875 114.004 9.79604 113.752 9.68263C113.501 9.56429 113.208 9.50513 112.872 9.50513C112.532 9.50513 112.261 9.52238 112.059 9.5569C111.857 9.59141 111.704 9.62839 111.6 9.66784V14.564Z" fill="#0B4096"/>
<path d="M106.874 11.9901C106.874 11.5709 106.869 11.2061 106.859 10.8954C106.849 10.5799 106.835 10.3087 106.815 10.0819C106.795 9.85014 106.773 9.65785 106.748 9.505C106.724 9.35215 106.697 9.22395 106.667 9.1204V9.09082H107.983V9.1204C107.954 9.22395 107.924 9.35215 107.895 9.505C107.87 9.65785 107.848 9.85014 107.828 10.0819C107.813 10.3087 107.799 10.5799 107.784 10.8954C107.774 11.2061 107.769 11.5709 107.769 11.9901V15.9839C107.769 16.689 107.668 17.2905 107.466 17.7885C107.264 18.2865 106.983 18.6958 106.623 19.0163C106.263 19.3318 105.831 19.5611 105.328 19.7041C104.825 19.852 104.276 19.926 103.679 19.926C103.082 19.926 102.525 19.8569 102.007 19.7189C101.495 19.5808 101.046 19.3589 100.661 19.0532C100.282 18.7426 99.9834 18.3432 99.7665 17.8551C99.5495 17.362 99.441 16.7629 99.441 16.0579V11.9901C99.441 11.5709 99.4361 11.2061 99.4263 10.8954C99.4164 10.5799 99.4016 10.3087 99.3819 10.0819C99.3622 9.85014 99.3375 9.65785 99.3079 9.505C99.2833 9.35215 99.2561 9.22395 99.2266 9.1204V9.09082H101.002V9.1204C100.972 9.22395 100.942 9.35215 100.913 9.505C100.888 9.65785 100.866 9.85014 100.846 10.0819C100.827 10.3087 100.812 10.5799 100.802 10.8954C100.792 11.2061 100.787 11.5709 100.787 11.9901V16.1392C100.787 16.726 100.873 17.2116 101.046 17.5962C101.223 17.9759 101.455 18.2791 101.741 18.5059C102.027 18.7278 102.353 18.8831 102.717 18.9719C103.082 19.0606 103.455 19.105 103.834 19.105C104.214 19.105 104.586 19.0606 104.951 18.9719C105.316 18.8831 105.639 18.7278 105.92 18.5059C106.206 18.2791 106.435 17.9759 106.608 17.5962C106.785 17.2116 106.874 16.726 106.874 16.1392V11.9901Z" fill="#0B4096"/>
<path d="M83.3325 19.6671C83.3868 19.5882 83.4484 19.4724 83.5174 19.3195C83.5864 19.1617 83.6407 18.9645 83.6801 18.7278C83.7344 18.3827 83.7935 17.9956 83.8576 17.5666C83.9267 17.1327 83.9957 16.6791 84.0647 16.2058C84.1387 15.7324 84.2102 15.2492 84.2792 14.7562C84.3532 14.2582 84.4222 13.77 84.4863 13.2918C84.5553 12.8085 84.6194 12.3451 84.6786 11.9013C84.7427 11.4526 84.7994 11.0434 84.8487 10.6736C84.898 10.3038 84.9375 9.98327 84.967 9.71208C85.0016 9.43597 85.0262 9.22888 85.041 9.09082H85.9803L90.6324 17.7885L95.2475 9.09082H95.9501L97.1631 17.8773C97.1976 18.1534 97.2346 18.3901 97.274 18.5873C97.3134 18.7845 97.3529 18.9546 97.3923 19.0976C97.4318 19.2357 97.4688 19.3516 97.5033 19.4452C97.5427 19.534 97.5797 19.6079 97.6142 19.6671V19.6967H95.7504V19.6671C95.7751 19.6129 95.7973 19.5241 95.817 19.4009C95.8416 19.2776 95.854 19.1297 95.854 18.9571C95.854 18.893 95.8515 18.8289 95.8466 18.7648C95.8416 18.6958 95.8342 18.6218 95.8244 18.5429L94.8851 11.4575L90.5214 19.6671L90.0111 19.6079L85.6179 11.3836C85.4453 12.5522 85.2949 13.632 85.1667 14.623C85.1125 15.0471 85.0583 15.4711 85.004 15.8952C84.9498 16.3143 84.9005 16.7062 84.8561 17.0711C84.8167 17.436 84.7846 17.7589 84.7599 18.04C84.7353 18.3161 84.723 18.5207 84.723 18.6539C84.723 18.8215 84.7279 18.9694 84.7378 19.0976C84.7476 19.2258 84.7575 19.3343 84.7673 19.423C84.7821 19.5266 84.7969 19.6178 84.8117 19.6967H83.3325V19.6671Z" fill="#0B4096"/>
<path d="M1.41242 18V10.7273H3.86981C4.44036 10.7273 4.90674 10.8303 5.26895 11.0362C5.63354 11.2398 5.90342 11.5156 6.07861 11.8636C6.2538 12.2116 6.3414 12.5999 6.3414 13.0284C6.3414 13.4569 6.2538 13.8464 6.07861 14.1967C5.90579 14.5471 5.63827 14.8265 5.27606 15.0348C4.91384 15.2408 4.44983 15.3438 3.88401 15.3438H2.12265V14.5625H3.8556C4.24623 14.5625 4.55991 14.495 4.79665 14.3601C5.0334 14.2251 5.20503 14.0429 5.31157 13.8132C5.42047 13.5812 5.47492 13.3196 5.47492 13.0284C5.47492 12.7372 5.42047 12.4768 5.31157 12.2472C5.20503 12.0175 5.03221 11.8376 4.7931 11.7074C4.55399 11.5748 4.23676 11.5085 3.8414 11.5085H2.2931V18H1.41242ZM9.80376 18.1136C9.31133 18.1136 8.87928 17.9964 8.50759 17.7621C8.13827 17.5277 7.84945 17.1998 7.64111 16.7784C7.43515 16.357 7.33216 15.8646 7.33216 15.3011C7.33216 14.733 7.43515 14.237 7.64111 13.8132C7.84945 13.3894 8.13827 13.0604 8.50759 12.826C8.87928 12.5916 9.31133 12.4744 9.80376 12.4744C10.2962 12.4744 10.7271 12.5916 11.0964 12.826C11.4681 13.0604 11.7569 13.3894 11.9628 13.8132C12.1712 14.237 12.2753 14.733 12.2753 15.3011C12.2753 15.8646 12.1712 16.357 11.9628 16.7784C11.7569 17.1998 11.4681 17.5277 11.0964 17.7621C10.7271 17.9964 10.2962 18.1136 9.80376 18.1136ZM9.80376 17.3608C10.1778 17.3608 10.4856 17.2649 10.7271 17.0732C10.9685 16.8814 11.1473 16.6293 11.2633 16.3168C11.3793 16.0043 11.4373 15.6657 11.4373 15.3011C11.4373 14.9366 11.3793 14.5968 11.2633 14.282C11.1473 13.9671 10.9685 13.7126 10.7271 13.5185C10.4856 13.3243 10.1778 13.2273 9.80376 13.2273C9.4297 13.2273 9.12194 13.3243 8.88046 13.5185C8.63898 13.7126 8.46024 13.9671 8.34424 14.282C8.22823 14.5968 8.17023 14.9366 8.17023 15.3011C8.17023 15.6657 8.22823 16.0043 8.34424 16.3168C8.46024 16.6293 8.63898 16.8814 8.88046 17.0732C9.12194 17.2649 9.4297 17.3608 9.80376 17.3608ZM14.6049 18L12.943 12.5455H13.8236L15.0026 16.7216H15.0594L16.2242 12.5455H17.1191L18.2697 16.7074H18.3265L19.5055 12.5455H20.3861L18.7242 18H17.9003L16.7072 13.8097H16.6219L15.4288 18H14.6049ZM23.5955 18.1136C23.0699 18.1136 22.6166 17.9976 22.2354 17.7656C21.8566 17.5312 21.5642 17.2045 21.3583 16.7855C21.1547 16.3641 21.0529 15.8741 21.0529 15.3153C21.0529 14.7566 21.1547 14.2642 21.3583 13.8381C21.5642 13.4096 21.8507 13.0758 22.2176 12.8366C22.587 12.5952 23.0178 12.4744 23.5103 12.4744C23.7943 12.4744 24.0749 12.5218 24.3519 12.6165C24.6289 12.7112 24.881 12.8651 25.1083 13.0781C25.3355 13.2888 25.5166 13.5682 25.6516 13.9162C25.7865 14.2642 25.854 14.6927 25.854 15.2017V15.5568H21.6495V14.8324H25.0017C25.0017 14.5246 24.9402 14.25 24.8171 14.0085C24.6963 13.767 24.5235 13.5765 24.2986 13.4368C24.0761 13.2971 23.8133 13.2273 23.5103 13.2273C23.1764 13.2273 22.8876 13.3101 22.6438 13.4759C22.4023 13.6392 22.2165 13.8523 22.0862 14.1151C21.956 14.3778 21.8909 14.6596 21.8909 14.9602V15.4432C21.8909 15.8551 21.962 16.2043 22.104 16.4908C22.2484 16.7749 22.4485 16.9915 22.7041 17.1406C22.9598 17.2874 23.2569 17.3608 23.5955 17.3608C23.8157 17.3608 24.0145 17.33 24.1921 17.2685C24.372 17.2045 24.5271 17.1098 24.6573 16.9844C24.7875 16.8565 24.8881 16.6979 24.9591 16.5085L25.7688 16.7358C25.6835 17.0104 25.5403 17.2519 25.3391 17.4602C25.1379 17.6662 24.8893 17.8272 24.5934 17.9432C24.2974 18.0568 23.9648 18.1136 23.5955 18.1136ZM27.1289 18V12.5455H27.9385V13.3693H27.9953C28.0948 13.0994 28.2747 12.8804 28.5351 12.7124C28.7955 12.5443 29.0891 12.4602 29.4158 12.4602C29.4773 12.4602 29.5543 12.4614 29.6466 12.4638C29.7389 12.4661 29.8088 12.4697 29.8561 12.4744V13.3267C29.8277 13.3196 29.7626 13.3089 29.6608 13.2947C29.5614 13.2782 29.456 13.2699 29.3448 13.2699C29.0796 13.2699 28.8429 13.3255 28.6345 13.4368C28.4286 13.5457 28.2652 13.6972 28.1445 13.8913C28.0261 14.0831 27.9669 14.3021 27.9669 14.5483V18H27.1289ZM32.9705 18.1136C32.4449 18.1136 31.9916 17.9976 31.6104 17.7656C31.2316 17.5312 30.9392 17.2045 30.7333 16.7855C30.5297 16.3641 30.4279 15.8741 30.4279 15.3153C30.4279 14.7566 30.5297 14.2642 30.7333 13.8381C30.9392 13.4096 31.2257 13.0758 31.5926 12.8366C31.962 12.5952 32.3928 12.4744 32.8853 12.4744C33.1693 12.4744 33.4499 12.5218 33.7269 12.6165C34.0039 12.7112 34.256 12.8651 34.4833 13.0781C34.7105 13.2888 34.8916 13.5682 35.0266 13.9162C35.1615 14.2642 35.229 14.6927 35.229 15.2017V15.5568H31.0245V14.8324H34.3767C34.3767 14.5246 34.3152 14.25 34.1921 14.0085C34.0713 13.767 33.8985 13.5765 33.6736 13.4368C33.4511 13.2971 33.1883 13.2273 32.8853 13.2273C32.5514 13.2273 32.2626 13.3101 32.0188 13.4759C31.7773 13.6392 31.5915 13.8523 31.4612 14.1151C31.331 14.3778 31.2659 14.6596 31.2659 14.9602V15.4432C31.2659 15.8551 31.337 16.2043 31.479 16.4908C31.6234 16.7749 31.8235 16.9915 32.0791 17.1406C32.3348 17.2874 32.6319 17.3608 32.9705 17.3608C33.1907 17.3608 33.3895 17.33 33.5671 17.2685C33.747 17.2045 33.9021 17.1098 34.0323 16.9844C34.1625 16.8565 34.2631 16.6979 34.3341 16.5085L35.1438 16.7358C35.0585 17.0104 34.9153 17.2519 34.7141 17.4602C34.5129 17.6662 34.2643 17.8272 33.9684 17.9432C33.6724 18.0568 33.3398 18.1136 32.9705 18.1136ZM38.5635 18.1136C38.109 18.1136 37.7077 17.9988 37.3597 17.7692C37.0117 17.5372 36.7394 17.2105 36.5429 16.7891C36.3464 16.3653 36.2482 15.8646 36.2482 15.2869C36.2482 14.714 36.3464 14.2169 36.5429 13.7955C36.7394 13.3741 37.0129 13.0485 37.3632 12.8189C37.7136 12.5893 38.1184 12.4744 38.5777 12.4744C38.9328 12.4744 39.2134 12.5336 39.4193 12.652C39.6277 12.768 39.7863 12.9006 39.8952 13.0497C40.0065 13.1965 40.0929 13.3172 40.1544 13.4119H40.2255V10.7273H41.0635V18H40.2539V17.1619H40.1544C40.0929 17.2614 40.0053 17.3868 39.8916 17.5384C39.778 17.6875 39.6158 17.8213 39.4051 17.9396C39.1944 18.0556 38.9139 18.1136 38.5635 18.1136ZM38.6772 17.3608C39.0133 17.3608 39.2974 17.2732 39.5294 17.098C39.7614 16.9205 39.9378 16.6754 40.0585 16.3629C40.1793 16.0481 40.2397 15.6847 40.2397 15.2727C40.2397 14.8655 40.1805 14.5092 40.0621 14.2038C39.9437 13.8961 39.7685 13.657 39.5365 13.4865C39.3045 13.3137 39.0181 13.2273 38.6772 13.2273C38.322 13.2273 38.0261 13.3184 37.7894 13.5007C37.555 13.6806 37.3786 13.9257 37.2603 14.2358C37.1443 14.5436 37.0862 14.8892 37.0862 15.2727C37.0862 15.661 37.1454 16.0137 37.2638 16.331C37.3845 16.6458 37.5621 16.8968 37.7965 17.0838C38.0332 17.2685 38.3268 17.3608 38.6772 17.3608ZM45.6409 18V10.7273H46.479V13.4119H46.55C46.6116 13.3172 46.6968 13.1965 46.8057 13.0497C46.917 12.9006 47.0756 12.768 47.2816 12.652C47.4899 12.5336 47.7716 12.4744 48.1267 12.4744C48.586 12.4744 48.9908 12.5893 49.3412 12.8189C49.6916 13.0485 49.965 13.3741 50.1615 13.7955C50.358 14.2169 50.4563 14.714 50.4563 15.2869C50.4563 15.8646 50.358 16.3653 50.1615 16.7891C49.965 17.2105 49.6928 17.5372 49.3448 17.7692C48.9968 17.9988 48.5955 18.1136 48.1409 18.1136C47.7906 18.1136 47.51 18.0556 47.2993 17.9396C47.0886 17.8213 46.9264 17.6875 46.8128 17.5384C46.6992 17.3868 46.6116 17.2614 46.55 17.1619H46.4506V18H45.6409ZM46.4648 15.2727C46.4648 15.6847 46.5252 16.0481 46.6459 16.3629C46.7666 16.6754 46.943 16.9205 47.175 17.098C47.407 17.2732 47.6911 17.3608 48.0273 17.3608C48.3777 17.3608 48.6701 17.2685 48.9044 17.0838C49.1412 16.8968 49.3187 16.6458 49.4371 16.331C49.5578 16.0137 49.6182 15.661 49.6182 15.2727C49.6182 14.8892 49.559 14.5436 49.4407 14.2358C49.3246 13.9257 49.1483 13.6806 48.9115 13.5007C48.6772 13.3184 48.3824 13.2273 48.0273 13.2273C47.6864 13.2273 47.3999 13.3137 47.1679 13.4865C46.9359 13.657 46.7607 13.8961 46.6424 14.2038C46.524 14.5092 46.4648 14.8655 46.4648 15.2727ZM52.0827 20.0455C51.9407 20.0455 51.814 20.0336 51.7027 20.0099C51.5915 19.9886 51.5145 19.9673 51.4719 19.946L51.685 19.2074C51.8886 19.2595 52.0685 19.2784 52.2247 19.2642C52.381 19.25 52.5195 19.1802 52.6402 19.0547C52.7633 18.9316 52.8758 18.7315 52.9776 18.4545L53.1338 18.0284L51.1168 12.5455H52.0259L53.5316 16.892H53.5884L55.0941 12.5455H56.0032L53.6878 18.7955C53.5836 19.0772 53.4546 19.3104 53.3007 19.495C53.1469 19.6821 52.9681 19.8205 52.7645 19.9105C52.5633 20.0005 52.336 20.0455 52.0827 20.0455Z" fill="black"/>
</svg>
