<svg width="1514" height="646" viewBox="0 0 1514 646" fill="none" xmlns="http://www.w3.org/2000/svg">
<path d="M259.26 257.651L196.352 302.185L183.734 311.13L171.117 302.185L108.208 257.651L63.3724 225.916C36.7704 207.086 0 226.109 0 258.701V398.534C0 405.222 0 412.152 0.159392 419.255C0.949975 432.019 2.20598 444.777 4.2717 457.401C7.76557 478.797 13.3507 501.367 26.2359 519.226C31.2918 526.232 37.6037 532.359 45.1653 536.612C56.3227 542.886 67.4865 542.828 79.103 537.613C96.6552 529.733 110.669 515.368 126.264 504.466C132.305 500.241 133.563 491.18 128.951 485.429C128.446 484.801 127.95 484.165 127.462 483.522C122.4 476.872 118.275 469.553 115.036 461.883C111.128 452.644 108.087 443.852 107.366 433.772C106.627 423.648 107.475 413.523 107.475 403.405C107.475 382.253 124.622 365.106 145.773 365.106H221.714C242.866 365.106 260.013 382.253 260.013 403.405C260.013 413.523 260.861 423.648 260.121 433.772C259.401 443.852 256.359 452.651 252.451 461.883C249.212 469.546 245.087 476.866 240.025 483.522C239.537 484.165 239.041 484.801 238.537 485.429C233.927 491.177 235.19 500.237 241.224 504.466C256.819 515.368 270.826 529.733 288.384 537.613C300.007 542.828 311.165 542.886 322.322 536.612C329.884 532.359 336.196 526.232 341.252 519.226C354.137 501.367 359.722 478.797 363.216 457.401C365.281 444.77 366.531 432.019 367.328 419.255C367.487 412.159 367.487 405.229 367.487 398.534V258.693C367.487 226.103 330.72 207.08 304.118 225.906L259.26 257.651Z" fill="url(#paint0_linear_101_3248)"/>
<path d="M1267.9 158.554C1269.49 157.909 1270.75 156.647 1271.4 155.057L1288.55 112.734C1290.69 107.451 1298.17 107.451 1300.32 112.734L1317.47 155.057C1318.12 156.647 1319.38 157.909 1320.97 158.554L1363.29 175.712C1368.58 177.853 1368.58 185.333 1363.29 187.474L1320.97 204.632C1319.38 205.277 1318.12 206.539 1317.47 208.129L1300.32 250.452C1298.17 255.735 1290.69 255.735 1288.55 250.452L1271.4 208.129C1270.75 206.539 1269.49 205.277 1267.9 204.632L1225.58 187.474C1220.29 185.333 1220.29 177.853 1225.58 175.712L1267.9 158.554Z" fill="url(#paint1_linear_101_3248)"/>
<path d="M1459.35 226.288L1449.31 251.067L1424.53 261.112C1419.25 263.254 1419.25 270.733 1424.53 272.874L1449.31 282.92L1459.35 307.698C1461.49 312.981 1468.97 312.981 1471.11 307.698L1481.16 282.92L1505.94 272.874C1511.22 270.733 1511.22 263.254 1505.94 261.112L1481.16 251.067L1478.22 252.259L1481.16 251.067L1471.11 226.288C1468.97 221.006 1461.49 221.006 1459.35 226.288Z" fill="url(#paint2_linear_101_3248)" stroke="white" stroke-width="6.3461"/>
<path d="M1287.83 34.4082C1288.63 34.0858 1289.26 33.455 1289.58 32.6597L1299.63 7.88115C1300.7 5.23992 1304.44 5.23992 1305.51 7.88115L1315.55 32.6597C1315.88 33.455 1316.51 34.0858 1317.3 34.4082L1342.08 44.4535C1344.72 45.5243 1344.72 49.2639 1342.08 50.3347L1317.3 60.3801C1316.51 60.7025 1315.88 61.3333 1315.55 62.1285L1305.51 86.9071C1304.44 89.5483 1300.7 89.5483 1299.63 86.9071L1289.58 62.1285C1289.26 61.3333 1288.63 60.7025 1287.83 60.3801L1263.05 50.3347C1260.41 49.2639 1260.41 45.5243 1263.05 44.4535L1287.83 34.4082Z" fill="url(#paint3_linear_101_3248)"/>
<path d="M1360.12 189.573L1361.38 186.663L1360.12 189.573C1360.9 189.915 1361.52 190.56 1361.82 191.361L1387.2 258.506C1390.3 266.712 1401.9 266.712 1405 258.506L1430.38 191.361C1430.68 190.56 1431.3 189.915 1432.08 189.573L1495.82 161.856C1503.45 158.537 1503.45 147.715 1495.82 144.397L1432.08 116.68C1431.3 116.338 1430.68 115.693 1430.38 114.892L1405 47.7465C1401.9 39.5413 1390.3 39.5412 1387.2 47.7465L1361.82 114.892C1361.52 115.693 1360.9 116.338 1360.12 116.68L1296.38 144.397C1288.75 147.715 1288.75 158.537 1296.38 161.856L1360.12 189.573Z" fill="url(#paint4_linear_101_3248)" stroke="white" stroke-width="6.3461"/>
<path d="M554.127 438.945C554.127 463.368 547.73 482.093 534.937 495.118C522.377 507.911 504.699 514.308 481.904 514.308C458.877 514.308 440.967 507.911 428.174 495.118C415.614 482.093 409.333 463.368 409.333 438.945V290.663H437.943V440.341C437.943 455.925 441.781 467.904 449.457 476.278C457.133 484.419 467.948 488.489 481.904 488.489C496.093 488.489 507.025 484.419 514.701 476.278C522.377 467.904 526.215 455.925 526.215 440.341V290.663H554.127V438.945ZM687.736 290.663C708.902 290.663 725.068 296.129 736.233 307.062C747.63 317.994 753.329 332.764 753.329 351.372C753.329 365.095 749.84 376.958 742.862 386.959C736.116 396.961 726.58 404.056 714.252 408.242L758.562 510.47H727.51L686.34 413.127H627.725V510.47H599.115V290.663H687.736ZM627.725 387.308H686.689C698.086 387.308 707.158 384.052 713.903 377.539C720.649 371.026 724.021 362.304 724.021 351.372C724.021 340.207 720.765 331.601 714.252 325.553C707.972 319.273 698.784 316.133 686.689 316.133H627.725V387.308ZM854.142 286.477C874.61 286.477 891.125 291.594 903.685 301.828C916.478 312.062 922.875 327.647 922.875 348.581V352.418H893.916V347.534C893.916 336.602 890.194 328.112 882.751 322.064C875.541 315.784 866.237 312.644 854.839 312.644C842.512 312.644 832.626 315.203 825.183 320.32C817.74 325.437 814.018 333.113 814.018 343.347C814.018 350.79 816.112 356.954 820.298 361.839C824.718 366.491 830.067 370.329 836.348 373.352C842.86 376.144 851.699 379.4 862.864 383.122C877.053 387.774 888.45 392.193 897.056 396.38C905.662 400.567 912.989 406.73 919.037 414.871C925.317 423.012 928.457 433.712 928.457 446.97C928.457 470.23 921.712 487.326 908.221 498.258C894.73 508.958 876.587 514.308 853.793 514.308C831.928 514.308 814.018 508.958 800.062 498.258C786.339 487.559 779.477 470.928 779.477 448.366L779.826 441.737H809.482L809.134 448.366C809.134 461.391 813.088 471.393 820.996 478.371C828.904 485.116 839.371 488.489 852.397 488.489C867.283 488.489 878.681 485.349 886.589 479.069C894.73 472.789 898.801 463.717 898.801 451.855C898.801 443.946 896.591 437.434 892.172 432.316C887.985 427.199 882.635 423.245 876.122 420.454C869.609 417.43 860.654 414.057 849.257 410.336C835.301 405.684 824.02 401.264 815.414 397.078C806.808 392.891 799.481 386.727 793.433 378.586C787.386 370.212 784.362 359.28 784.362 345.789C784.362 326.251 790.875 311.481 803.9 301.479C816.926 291.477 833.673 286.477 854.142 286.477ZM1081.25 510.47V410.685H992.979V510.47H964.369V290.663H992.979V384.866H1081.25V290.663H1109.16V510.47H1081.25ZM1154.15 290.663H1182.76V510.47H1154.15V290.663ZM1295.79 290.663C1322.31 290.663 1342.78 299.735 1357.2 317.877C1371.85 336.02 1379.18 362.537 1379.18 397.426C1379.18 434.41 1371.85 462.554 1357.2 481.86C1342.78 500.933 1322.31 510.47 1295.79 510.47H1227.41V290.663H1295.79ZM1293.35 484.651C1311.26 484.651 1325.1 478.022 1334.87 464.764C1344.87 451.273 1349.87 431.386 1349.87 405.102V389.402C1349.87 365.211 1344.87 346.952 1334.87 334.625C1325.1 322.297 1311.26 316.133 1293.35 316.133H1256.02V484.651H1293.35Z" fill="url(#paint5_linear_101_3248)"/>
<defs>
<linearGradient id="paint0_linear_101_3248" x1="15.8499" y1="510.676" x2="342.131" y2="173.332" gradientUnits="userSpaceOnUse">
<stop stop-color="#8C28E1"/>
<stop offset="1" stop-color="#39D0FF"/>
</linearGradient>
<linearGradient id="paint1_linear_101_3248" x1="1333.07" y1="242.593" x2="1256.18" y2="119.596" gradientUnits="userSpaceOnUse">
<stop stop-color="#19E9B0"/>
<stop offset="1" stop-color="#2380FC"/>
</linearGradient>
<linearGradient id="paint2_linear_101_3248" x1="1504.35" y1="259.067" x2="1425.38" y2="267.265" gradientUnits="userSpaceOnUse">
<stop stop-color="#3262CB"/>
<stop offset="1" stop-color="#2380FC"/>
</linearGradient>
<linearGradient id="paint3_linear_101_3248" x1="1324.24" y1="81.6135" x2="1246.07" y2="-36.9523" gradientUnits="userSpaceOnUse">
<stop stop-color="#19E9B0"/>
<stop offset="1" stop-color="#2380FC"/>
</linearGradient>
<linearGradient id="paint4_linear_101_3248" x1="1489.63" y1="132.793" x2="1300.53" y2="151.093" gradientUnits="userSpaceOnUse">
<stop stop-color="#3262CB"/>
<stop offset="1" stop-color="#2380FC"/>
</linearGradient>
<linearGradient id="paint5_linear_101_3248" x1="430.479" y1="603.826" x2="774.284" y2="-116.179" gradientUnits="userSpaceOnUse">
<stop stop-color="#8C28E1"/>
<stop offset="1" stop-color="#39D0FF"/>
</linearGradient>
</defs>
</svg>
