<svg width="18" height="20" viewBox="0 0 18 20" fill="none" xmlns="http://www.w3.org/2000/svg">
<mask id="path-1-outside-1_32_321" maskUnits="userSpaceOnUse" x="0.126953" y="0.000305176" width="18" height="20" fill="black">
<rect fill="white" x="0.126953" y="0.000305176" width="18" height="20"/>
<path d="M7.30701 1.00031C7.45602 1.00031 7.59892 1.0595 7.70428 1.16486C7.80964 1.27022 7.86884 1.41312 7.86884 1.56213V3.80942C7.86884 3.95843 7.80964 4.10133 7.70428 4.20669C7.59892 4.31205 7.45602 4.37125 7.30701 4.37125C7.15801 4.37125 7.01511 4.31205 6.90974 4.20669C6.80438 4.10133 6.74519 3.95843 6.74519 3.80942V1.56213C6.74519 1.41312 6.80438 1.27022 6.90974 1.16486C7.01511 1.0595 7.15801 1.00031 7.30701 1.00031ZM2.93603 2.80938C2.98821 2.75706 3.05021 2.71555 3.11847 2.68722C3.18672 2.6589 3.2599 2.64432 3.3338 2.64432C3.4077 2.64432 3.48087 2.6589 3.54912 2.68722C3.61738 2.71555 3.67938 2.75706 3.73157 2.80938L5.3204 4.39934C5.37406 4.45116 5.41687 4.51316 5.44631 4.5817C5.47575 4.65025 5.49125 4.72397 5.4919 4.79857C5.49255 4.87317 5.47833 4.94715 5.45009 5.01619C5.42184 5.08524 5.38012 5.14797 5.32737 5.20072C5.27462 5.25347 5.21189 5.29519 5.14284 5.32344C5.0738 5.35169 4.99982 5.3659 4.92522 5.36525C4.85062 5.3646 4.7769 5.34911 4.70835 5.31966C4.63981 5.29022 4.57781 5.24742 4.52599 5.19376L2.93715 3.60492C2.83182 3.49956 2.77265 3.35669 2.77265 3.20771C2.77265 3.05873 2.83182 2.91586 2.93715 2.8105M11.6791 2.8105C11.7314 2.86269 11.773 2.92469 11.8013 2.99294C11.8296 3.0612 11.8442 3.13437 11.8442 3.20827C11.8442 3.28217 11.8296 3.35534 11.8013 3.4236C11.773 3.49186 11.7314 3.55385 11.6791 3.60604L10.0869 5.19376C10.0351 5.24742 9.97309 5.29022 9.90455 5.31966C9.83601 5.34911 9.76228 5.3646 9.68769 5.36525C9.61309 5.3659 9.53911 5.35169 9.47006 5.32344C9.40101 5.29519 9.33828 5.25347 9.28553 5.20072C9.23278 5.14797 9.19107 5.08524 9.16282 5.01619C9.13457 4.94715 9.12035 4.87317 9.121 4.79857C9.12165 4.72397 9.13715 4.65025 9.16659 4.5817C9.19604 4.51316 9.23884 4.45116 9.2925 4.39934L10.8813 2.8105C10.9867 2.70518 11.1296 2.64601 11.2785 2.64601C11.4275 2.64601 11.5704 2.70518 11.6758 2.8105M1.12695 7.18036C1.12695 7.03136 1.18615 6.88846 1.29151 6.78309C1.39687 6.67773 1.53977 6.61854 1.68878 6.61854H3.93607C4.08508 6.61854 4.22798 6.67773 4.33334 6.78309C4.4387 6.88846 4.49789 7.03136 4.49789 7.18036C4.49789 7.32937 4.4387 7.47227 4.33334 7.57763C4.22798 7.683 4.08508 7.74219 3.93607 7.74219H1.68878C1.53977 7.74219 1.39687 7.683 1.29151 7.57763C1.18615 7.47227 1.12695 7.32937 1.12695 7.18036ZM8.58797 6.95564C8.42399 6.81905 8.2245 6.73199 8.01285 6.70464C7.80119 6.67728 7.58613 6.71077 7.39281 6.80118C7.1995 6.89159 7.03592 7.03519 6.92124 7.21516C6.80655 7.39514 6.74548 7.60406 6.74519 7.81747V18.0438C6.74519 19.082 8.03177 19.5652 8.71494 18.7843L10.9915 16.1819C11.1498 16.0013 11.3449 15.8567 11.5637 15.7577C11.7825 15.6586 12.0199 15.6075 12.26 15.6077H15.8681C16.9187 15.6077 17.3951 14.2931 16.5872 13.6211L8.58797 6.95564ZM7.86884 18.046V7.81747L15.8681 14.4841H12.26C11.8595 14.484 11.4636 14.5696 11.0989 14.7351C10.7342 14.9006 10.409 15.1422 10.1453 15.4437L7.86884 18.046Z"/>
</mask>
<path d="M7.30701 1.00031C7.45602 1.00031 7.59892 1.0595 7.70428 1.16486C7.80964 1.27022 7.86884 1.41312 7.86884 1.56213V3.80942C7.86884 3.95843 7.80964 4.10133 7.70428 4.20669C7.59892 4.31205 7.45602 4.37125 7.30701 4.37125C7.15801 4.37125 7.01511 4.31205 6.90974 4.20669C6.80438 4.10133 6.74519 3.95843 6.74519 3.80942V1.56213C6.74519 1.41312 6.80438 1.27022 6.90974 1.16486C7.01511 1.0595 7.15801 1.00031 7.30701 1.00031ZM2.93603 2.80938C2.98821 2.75706 3.05021 2.71555 3.11847 2.68722C3.18672 2.6589 3.2599 2.64432 3.3338 2.64432C3.4077 2.64432 3.48087 2.6589 3.54912 2.68722C3.61738 2.71555 3.67938 2.75706 3.73157 2.80938L5.3204 4.39934C5.37406 4.45116 5.41687 4.51316 5.44631 4.5817C5.47575 4.65025 5.49125 4.72397 5.4919 4.79857C5.49255 4.87317 5.47833 4.94715 5.45009 5.01619C5.42184 5.08524 5.38012 5.14797 5.32737 5.20072C5.27462 5.25347 5.21189 5.29519 5.14284 5.32344C5.0738 5.35169 4.99982 5.3659 4.92522 5.36525C4.85062 5.3646 4.7769 5.34911 4.70835 5.31966C4.63981 5.29022 4.57781 5.24742 4.52599 5.19376L2.93715 3.60492C2.83182 3.49956 2.77265 3.35669 2.77265 3.20771C2.77265 3.05873 2.83182 2.91586 2.93715 2.8105M11.6791 2.8105C11.7314 2.86269 11.773 2.92469 11.8013 2.99294C11.8296 3.0612 11.8442 3.13437 11.8442 3.20827C11.8442 3.28217 11.8296 3.35534 11.8013 3.4236C11.773 3.49186 11.7314 3.55385 11.6791 3.60604L10.0869 5.19376C10.0351 5.24742 9.97309 5.29022 9.90455 5.31966C9.83601 5.34911 9.76228 5.3646 9.68769 5.36525C9.61309 5.3659 9.53911 5.35169 9.47006 5.32344C9.40101 5.29519 9.33828 5.25347 9.28553 5.20072C9.23278 5.14797 9.19107 5.08524 9.16282 5.01619C9.13457 4.94715 9.12035 4.87317 9.121 4.79857C9.12165 4.72397 9.13715 4.65025 9.16659 4.5817C9.19604 4.51316 9.23884 4.45116 9.2925 4.39934L10.8813 2.8105C10.9867 2.70518 11.1296 2.64601 11.2785 2.64601C11.4275 2.64601 11.5704 2.70518 11.6758 2.8105M1.12695 7.18036C1.12695 7.03136 1.18615 6.88846 1.29151 6.78309C1.39687 6.67773 1.53977 6.61854 1.68878 6.61854H3.93607C4.08508 6.61854 4.22798 6.67773 4.33334 6.78309C4.4387 6.88846 4.49789 7.03136 4.49789 7.18036C4.49789 7.32937 4.4387 7.47227 4.33334 7.57763C4.22798 7.683 4.08508 7.74219 3.93607 7.74219H1.68878C1.53977 7.74219 1.39687 7.683 1.29151 7.57763C1.18615 7.47227 1.12695 7.32937 1.12695 7.18036ZM8.58797 6.95564C8.42399 6.81905 8.2245 6.73199 8.01285 6.70464C7.80119 6.67728 7.58613 6.71077 7.39281 6.80118C7.1995 6.89159 7.03592 7.03519 6.92124 7.21516C6.80655 7.39514 6.74548 7.60406 6.74519 7.81747V18.0438C6.74519 19.082 8.03177 19.5652 8.71494 18.7843L10.9915 16.1819C11.1498 16.0013 11.3449 15.8567 11.5637 15.7577C11.7825 15.6586 12.0199 15.6075 12.26 15.6077H15.8681C16.9187 15.6077 17.3951 14.2931 16.5872 13.6211L8.58797 6.95564ZM7.86884 18.046V7.81747L15.8681 14.4841H12.26C11.8595 14.484 11.4636 14.5696 11.0989 14.7351C10.7342 14.9006 10.409 15.1422 10.1453 15.4437L7.86884 18.046Z" fill="#0054E6"/>
<path d="M7.30701 1.00031V1.30031V1.00031ZM3.73157 2.80938L3.51917 3.02124L3.51936 3.02143L3.73157 2.80938ZM5.3204 4.39934L5.10816 4.61143L5.11199 4.61512L5.3204 4.39934ZM4.52599 5.19376L4.74181 4.98531L4.73812 4.98162L4.52599 5.19376ZM2.93715 3.60492L2.72498 3.81702L2.72502 3.81705L2.93715 3.60492ZM11.6791 3.60604L11.891 3.81847L11.891 3.81844L11.6791 3.60604ZM10.0869 5.19376L9.87505 4.98129L9.87113 4.98534L10.0869 5.19376ZM9.2925 4.39934L9.50094 4.61516L9.50463 4.61147L9.2925 4.39934ZM10.8813 2.8105L10.6692 2.59834L10.6692 2.59837L10.8813 2.8105ZM8.58797 6.95564L8.78002 6.72516L8.77997 6.72512L8.58797 6.95564ZM6.74519 7.81747L6.44519 7.81706V7.81747H6.74519ZM8.71494 18.7843L8.94074 18.9818L8.94074 18.9818L8.71494 18.7843ZM10.9915 16.1819L10.7659 15.9841L10.7657 15.9844L10.9915 16.1819ZM12.26 15.6077L12.2598 15.9077H12.26V15.6077ZM16.5872 13.6211L16.3952 13.8516L16.3954 13.8518L16.5872 13.6211ZM7.86884 18.046H7.56884V18.8446L8.09463 18.2436L7.86884 18.046ZM7.86884 7.81747L8.0609 7.58701L7.56884 7.17693V7.81747H7.86884ZM15.8681 14.4841V14.7841H16.6966L16.0601 14.2536L15.8681 14.4841ZM12.26 14.4841L12.26 14.7841H12.26V14.4841ZM10.1453 15.4437L10.3711 15.6412L10.3711 15.6412L10.1453 15.4437ZM7.30701 1.30031C7.37645 1.30031 7.44305 1.32789 7.49215 1.37699L7.91641 0.952728C7.75479 0.791104 7.53558 0.700305 7.30701 0.700305V1.30031ZM7.49215 1.37699C7.54125 1.42609 7.56884 1.49269 7.56884 1.56213H8.16884C8.16884 1.33356 8.07804 1.11435 7.91641 0.952728L7.49215 1.37699ZM7.56884 1.56213V3.80942H8.16884V1.56213H7.56884ZM7.56884 3.80942C7.56884 3.87886 7.54125 3.94546 7.49215 3.99456L7.91641 4.41882C8.07804 4.2572 8.16884 4.03799 8.16884 3.80942H7.56884ZM7.49215 3.99456C7.44305 4.04366 7.37645 4.07125 7.30701 4.07125V4.67125C7.53558 4.67125 7.75479 4.58045 7.91641 4.41882L7.49215 3.99456ZM7.30701 4.07125C7.23757 4.07125 7.17098 4.04366 7.12188 3.99456L6.69761 4.41882C6.85923 4.58045 7.07844 4.67125 7.30701 4.67125V4.07125ZM7.12188 3.99456C7.07277 3.94546 7.04519 3.87886 7.04519 3.80942H6.44519C6.44519 4.03799 6.53599 4.2572 6.69761 4.41882L7.12188 3.99456ZM7.04519 3.80942V1.56213H6.44519V3.80942H7.04519ZM7.04519 1.56213C7.04519 1.49269 7.07277 1.42609 7.12188 1.37699L6.69761 0.952728C6.53599 1.11435 6.44519 1.33356 6.44519 1.56213H7.04519ZM7.12188 1.37699C7.17098 1.32789 7.23757 1.30031 7.30701 1.30031L7.30701 0.700305C7.07844 0.700305 6.85923 0.791104 6.69761 0.952728L7.12188 1.37699ZM3.14843 3.02124C3.17275 2.99686 3.20164 2.97751 3.23345 2.96431L3.00349 2.41013C2.89878 2.45358 2.80368 2.51725 2.72363 2.59751L3.14843 3.02124ZM3.23345 2.96431C3.26526 2.95111 3.29936 2.94432 3.3338 2.94432V2.34432C3.22044 2.34432 3.10819 2.36668 3.00349 2.41013L3.23345 2.96431ZM3.3338 2.94432C3.36823 2.94432 3.40234 2.95111 3.43414 2.96431L3.6641 2.41013C3.5594 2.36668 3.44716 2.34432 3.3338 2.34432V2.94432ZM3.43414 2.96431C3.46595 2.97751 3.49485 2.99686 3.51917 3.02124L3.94397 2.59751C3.86391 2.51725 3.76881 2.45358 3.6641 2.41013L3.43414 2.96431ZM3.51936 3.02143L5.1082 4.61139L5.53261 4.18728L3.94377 2.59732L3.51936 3.02143ZM5.11199 4.61512C5.137 4.63928 5.15694 4.66817 5.17067 4.70011L5.72195 4.4633C5.67679 4.35815 5.61113 4.26305 5.52882 4.18355L5.11199 4.61512ZM5.17067 4.70011C5.18439 4.73205 5.19161 4.76641 5.19191 4.80118L5.79189 4.79596C5.7909 4.68153 5.76712 4.56844 5.72195 4.4633L5.17067 4.70011ZM5.19191 4.80118C5.19221 4.83594 5.18559 4.87042 5.17243 4.90259L5.72775 5.12979C5.77108 5.02388 5.79288 4.9104 5.79189 4.79596L5.19191 4.80118ZM5.17243 4.90259C5.15926 4.93477 5.13982 4.964 5.11524 4.98859L5.5395 5.41285C5.62042 5.33193 5.68441 5.23571 5.72775 5.12979L5.17243 4.90259ZM5.11524 4.98859C5.09065 5.01317 5.06142 5.03261 5.02924 5.04578L5.25644 5.6011C5.36236 5.55776 5.45858 5.49377 5.5395 5.41285L5.11524 4.98859ZM5.02924 5.04578C4.99706 5.05894 4.96259 5.06557 4.92782 5.06526L4.92261 5.66524C5.03704 5.66624 5.15053 5.64443 5.25644 5.6011L5.02924 5.04578ZM4.92782 5.06526C4.89306 5.06496 4.8587 5.05774 4.82676 5.04402L4.58994 5.59531C4.69509 5.64047 4.80818 5.66425 4.92261 5.66524L4.92782 5.06526ZM4.82676 5.04402C4.79482 5.0303 4.76593 5.01035 4.74177 4.98534L4.3102 5.40217C4.3897 5.48448 4.4848 5.55014 4.58994 5.59531L4.82676 5.04402ZM4.73812 4.98162L3.14928 3.39279L2.72502 3.81705L4.31385 5.40589L4.73812 4.98162ZM3.14931 3.39282C3.10023 3.34372 3.07265 3.27714 3.07265 3.20771H2.47265C2.47265 3.43623 2.56342 3.6554 2.72498 3.81702L3.14931 3.39282ZM3.07265 3.20771C3.07265 3.13828 3.10023 3.0717 3.14931 3.0226L2.72498 2.5984C2.56342 2.76002 2.47265 2.97918 2.47265 3.20771H3.07265ZM11.4673 3.0229C11.4916 3.04722 11.511 3.07612 11.5242 3.10792L12.0784 2.87796C12.0349 2.77326 11.9712 2.67816 11.891 2.5981L11.4673 3.0229ZM11.5242 3.10792C11.5374 3.13973 11.5442 3.17383 11.5442 3.20827H12.1442C12.1442 3.09491 12.1218 2.98267 12.0784 2.87796L11.5242 3.10792ZM11.5442 3.20827C11.5442 3.24271 11.5374 3.27681 11.5242 3.30862L12.0784 3.53858C12.1218 3.43388 12.1442 3.32163 12.1442 3.20827H11.5442ZM11.5242 3.30862C11.511 3.34043 11.4916 3.36932 11.4673 3.39364L11.891 3.81844C11.9712 3.73839 12.0349 3.64329 12.0784 3.53858L11.5242 3.30862ZM11.4673 3.39361L9.87508 4.98132L10.2987 5.40619L11.891 3.81847L11.4673 3.39361ZM9.87113 4.98534C9.84698 5.01035 9.81809 5.0303 9.78614 5.04402L10.023 5.59531C10.1281 5.55014 10.2232 5.48448 10.3027 5.40217L9.87113 4.98534ZM9.78614 5.04402C9.7542 5.05774 9.71984 5.06496 9.68508 5.06526L9.69029 5.66524C9.80472 5.66425 9.91781 5.64047 10.023 5.59531L9.78614 5.04402ZM9.68508 5.06526C9.65031 5.06557 9.61584 5.05894 9.58366 5.04578L9.35646 5.6011C9.46237 5.64443 9.57586 5.66624 9.69029 5.66524L9.68508 5.06526ZM9.58366 5.04578C9.55148 5.03261 9.52225 5.01317 9.49767 4.98859L9.0734 5.41285C9.15432 5.49377 9.25055 5.55776 9.35646 5.6011L9.58366 5.04578ZM9.49767 4.98859C9.47308 4.964 9.45364 4.93477 9.44048 4.90259L8.88516 5.12979C8.92849 5.23571 8.99248 5.33193 9.0734 5.41285L9.49767 4.98859ZM9.44048 4.90259C9.42731 4.87042 9.42069 4.83594 9.42099 4.80118L8.82101 4.79596C8.82002 4.91039 8.84182 5.02388 8.88516 5.12979L9.44048 4.90259ZM9.42099 4.80118C9.42129 4.76641 9.42851 4.73205 9.44224 4.70011L8.89095 4.4633C8.84578 4.56844 8.82201 4.68153 8.82101 4.79596L9.42099 4.80118ZM9.44224 4.70011C9.45596 4.66817 9.4759 4.63928 9.50091 4.61512L9.08408 4.18355C9.00177 4.26305 8.93612 4.35815 8.89095 4.4633L9.44224 4.70011ZM9.50463 4.61147L11.0935 3.02263L10.6692 2.59837L9.08037 4.18721L9.50463 4.61147ZM11.0934 3.02266C11.1425 2.97358 11.2091 2.94601 11.2785 2.94601V2.34601C11.05 2.34601 10.8309 2.43677 10.6692 2.59834L11.0934 3.02266ZM11.2785 2.94601C11.348 2.94601 11.4146 2.97358 11.4637 3.02266L11.8879 2.59834C11.7262 2.43677 11.5071 2.34601 11.2785 2.34601V2.94601ZM1.42695 7.18036C1.42695 7.11092 1.45454 7.04433 1.50364 6.99523L1.07938 6.57096C0.917752 6.73259 0.826953 6.95179 0.826953 7.18036H1.42695ZM1.50364 6.99523C1.55274 6.94613 1.61934 6.91854 1.68878 6.91854V6.31854C1.46021 6.31854 1.241 6.40934 1.07938 6.57096L1.50364 6.99523ZM1.68878 6.91854H3.93607V6.31854H1.68878V6.91854ZM3.93607 6.91854C4.00551 6.91854 4.07211 6.94613 4.12121 6.99523L4.54547 6.57096C4.38385 6.40934 4.16464 6.31854 3.93607 6.31854V6.91854ZM4.12121 6.99523C4.17031 7.04433 4.19789 7.11092 4.19789 7.18036H4.79789C4.79789 6.95179 4.7071 6.73259 4.54547 6.57096L4.12121 6.99523ZM4.19789 7.18036C4.19789 7.2498 4.17031 7.3164 4.12121 7.3655L4.54547 7.78977C4.7071 7.62814 4.79789 7.40893 4.79789 7.18036H4.19789ZM4.12121 7.3655C4.07211 7.4146 4.00551 7.44219 3.93607 7.44219V8.04219C4.16464 8.04219 4.38385 7.95139 4.54547 7.78977L4.12121 7.3655ZM3.93607 7.44219H1.68878V8.04219H3.93607V7.44219ZM1.68878 7.44219C1.61934 7.44219 1.55274 7.4146 1.50364 7.3655L1.07938 7.78977C1.241 7.95139 1.46021 8.04219 1.68878 8.04219V7.44219ZM1.50364 7.3655C1.45454 7.3164 1.42695 7.2498 1.42695 7.18036H0.826953C0.826953 7.40893 0.917752 7.62814 1.07938 7.78977L1.50364 7.3655ZM8.77997 6.72512C8.57221 6.55207 8.31946 6.44177 8.0513 6.40711L7.9744 7.00216C8.12954 7.02221 8.27577 7.08603 8.39597 7.18615L8.77997 6.72512ZM8.0513 6.40711C7.78313 6.37246 7.51065 6.41488 7.26572 6.52943L7.5199 7.07293C7.66161 7.00666 7.81925 6.98211 7.9744 7.00216L8.0513 6.40711ZM7.26572 6.52943C7.02079 6.64398 6.81355 6.82591 6.66824 7.05394L7.17423 7.37639C7.2583 7.24446 7.3782 7.1392 7.5199 7.07293L7.26572 6.52943ZM6.66824 7.05394C6.52293 7.28197 6.44556 7.54667 6.44519 7.81706L7.04519 7.81788C7.0454 7.66145 7.09016 7.50831 7.17423 7.37639L6.66824 7.05394ZM6.44519 7.81747V18.0438H7.04519V7.81747H6.44519ZM6.44519 18.0438C6.44519 19.359 8.07509 19.9713 8.94074 18.9818L8.48915 18.5867C7.98844 19.1591 7.04519 18.8051 7.04519 18.0438H6.44519ZM8.94074 18.9818L11.2172 16.3794L10.7657 15.9844L8.48915 18.5867L8.94074 18.9818ZM11.217 16.3797C11.3472 16.2313 11.5075 16.1124 11.6874 16.031L11.44 15.4844C11.1822 15.601 10.9524 15.7714 10.7659 15.9841L11.217 16.3797ZM11.6874 16.031C11.8672 15.9496 12.0624 15.9076 12.2598 15.9077L12.2603 15.3077C11.9774 15.3075 11.6977 15.3677 11.44 15.4844L11.6874 16.031ZM12.26 15.9077H15.8681V15.3077H12.26V15.9077ZM15.8681 15.9077C17.1988 15.9077 17.8033 14.2423 16.779 13.3905L16.3954 13.8518C16.9869 14.3438 16.6386 15.3077 15.8681 15.3077V15.9077ZM16.7793 13.3906L8.78002 6.72516L8.39593 7.18611L16.3952 13.8516L16.7793 13.3906ZM8.16884 18.046V7.81747H7.56884V18.046H8.16884ZM7.67677 8.04793L15.676 14.7145L16.0601 14.2536L8.0609 7.58701L7.67677 8.04793ZM15.8681 14.1841H12.26V14.7841H15.8681V14.1841ZM12.2601 14.1841C11.8168 14.184 11.3786 14.2787 10.9749 14.4619L11.2229 15.0083C11.5486 14.8605 11.9023 14.784 12.26 14.7841L12.2601 14.1841ZM10.9749 14.4619C10.5713 14.6451 10.2114 14.9125 9.91955 15.2461L10.3711 15.6412C10.6067 15.3719 10.8971 15.1561 11.2229 15.0083L10.9749 14.4619ZM9.91955 15.2461L7.64304 17.8485L8.09463 18.2436L10.3711 15.6412L9.91955 15.2461Z" fill="#0054E6" mask="url(#path-1-outside-1_32_321)"/>
</svg>
